<svg width="38" height="45" viewBox="0 0 38 45" fill="none" xmlns="http://www.w3.org/2000/svg">
<path d="M33.35 31.7509C33.35 31.2428 33.2143 30.798 32.9407 30.4206C34.2657 29.395 34.4656 27.5056 33.4811 26.1424C32.471 24.7439 30.5324 24.5153 29.1414 25.5199L29.1414 25.5198L29.1386 25.522C28.4526 26.0555 27.989 26.8181 27.9033 27.6624C27.3435 28.3772 24.5929 31.6509 19 31.6509C13.3968 31.6509 10.6475 28.4386 10.097 27.665C9.92912 25.9744 8.46256 24.7471 6.76595 24.9014C5.06154 25.0563 3.82036 26.5294 3.97541 28.235C4.0495 29.05 4.47742 29.8671 5.13019 30.3466C4.78957 30.7873 4.65 31.2358 4.65 31.7509V40.08C3.74699 40.412 3.15 41.2581 3.15 42.2509V43.7509C3.15 43.9987 3.23301 44.2129 3.38554 44.3654C3.53807 44.5179 3.75228 44.6009 4 44.6009H10C10.2477 44.6009 10.4619 44.5179 10.6145 44.3654C10.767 44.2129 10.85 43.9987 10.85 43.7509V42.2509C10.85 41.2581 10.253 40.412 9.35 40.08V31.7509C9.35 31.2423 9.214 30.797 8.93975 30.4193C9.18486 30.2242 9.42702 29.9758 9.5816 29.6728C12.0682 32.1027 15.4976 33.4249 19 33.351C22.5102 33.4251 25.8722 32.0969 28.4297 29.6592C28.6175 29.9594 28.8138 30.2143 29.0608 30.4186C28.7862 30.7964 28.65 31.2419 28.65 31.7509V40.08C27.747 40.412 27.15 41.2581 27.15 42.2509V43.7509C27.15 43.9987 27.233 44.2129 27.3855 44.3654C27.5381 44.5179 27.7523 44.6009 28 44.6009H34C34.2477 44.6009 34.4619 44.5179 34.6145 44.3654C34.767 44.2129 34.85 43.9987 34.85 43.7509V42.2509C34.85 41.2581 34.253 40.412 33.35 40.08V31.7509ZM7 26.6009C7.76977 26.6009 8.4 27.2312 8.4 28.0009C8.4 28.7707 7.76977 29.4009 7 29.4009C6.23023 29.4009 5.6 28.7707 5.6 28.0009C5.6 27.2312 6.23023 26.6009 7 26.6009ZM4.85 42.9009V42.2509C4.85 42.0487 4.91699 41.8879 5.02696 41.7779C5.13693 41.6679 5.29772 41.6009 5.5 41.6009H8.5C8.70228 41.6009 8.86307 41.6679 8.97304 41.7779C9.08301 41.8879 9.15 42.0487 9.15 42.2509V42.9009H4.85ZM7.65 31.7509V39.9009H6.35V31.7509C6.35 31.5487 6.41699 31.3879 6.52696 31.2779C6.63693 31.1679 6.79772 31.1009 7 31.1009C7.20228 31.1009 7.36307 31.1679 7.47304 31.2779C7.58301 31.3879 7.65 31.5487 7.65 31.7509ZM31 26.6009C31.7698 26.6009 32.4 27.2312 32.4 28.0009C32.4 28.7707 31.7698 29.4009 31 29.4009C30.2302 29.4009 29.6 28.7707 29.6 28.0009C29.6 27.2312 30.2302 26.6009 31 26.6009ZM31.65 31.7509V39.9009H30.35V31.7509C30.35 31.5487 30.417 31.3879 30.527 31.2779C30.6369 31.1679 30.7977 31.1009 31 31.1009C31.2023 31.1009 31.3631 31.1679 31.473 31.2779C31.583 31.3879 31.65 31.5487 31.65 31.7509ZM28.85 42.9009V42.2509C28.85 42.0487 28.917 41.8879 29.027 41.7779C29.1369 41.6679 29.2977 41.6009 29.5 41.6009H32.5C32.7023 41.6009 32.8631 41.6679 32.973 41.7779C33.083 41.8879 33.15 42.0487 33.15 42.2509V42.9009H28.85Z" fill="#ffffff" stroke="#ffffff" stroke-width="0.2"/>
<path d="M34.675 0.9H22.825C21.4948 0.9 20.4 1.99477 20.4 3.325V21.175C20.4 22.5052 21.4948 23.6 22.825 23.6H34.675C36.0052 23.6 37.1 22.5052 37.1 21.175V3.325C37.1 1.99477 36.0052 0.9 34.675 0.9ZM35.4 21.175C35.4 21.5698 35.0698 21.9 34.675 21.9H22.825C22.4302 21.9 22.1 21.5698 22.1 21.175V3.325C22.1 2.93023 22.4302 2.6 22.825 2.6H34.675C35.0698 2.6 35.4 2.93023 35.4 3.325V21.175Z" fill="#ffffff" stroke="#ffffff" stroke-width="0.2"/>
<path d="M32.5 3.9H25C24.1198 3.9 23.4 4.61977 23.4 5.5V19C23.4 19.8802 24.1198 20.6 25 20.6H32.5C33.3802 20.6 34.1 19.8802 34.1 19V5.5C34.1 4.61977 33.3802 3.9 32.5 3.9ZM32.4 18.9H25.1V5.6H32.4V18.9Z" fill="#ffffff" stroke="#ffffff" stroke-width="0.2"/>
<path d="M27.25 17.6V17.6002L27.2555 17.5998C27.9408 17.5618 28.8956 17.3717 29.6825 16.9015C30.4735 16.4288 31.1 15.6686 31.1 14.5C31.1 12.8922 30.3339 11.4368 29.0327 10.5183L29.0265 10.5139L29.0197 10.5106C28.9615 10.4814 28.9161 10.4371 28.8582 10.3793L28.8544 10.3755C28.8179 10.339 28.7759 10.2969 28.7248 10.2597C29.0224 9.55765 29.5218 8.91961 30.0957 8.34571C30.4348 8.00666 30.4348 7.49334 30.0957 7.15429C29.7567 6.81524 29.2433 6.81524 28.9043 7.15429C28.4893 7.56926 27.825 8.30866 27.4056 9.09022C27.196 9.48086 27.0437 9.88915 27.019 10.2772C26.994 10.669 27.0995 11.0409 27.4043 11.3457L27.4058 11.3472C27.5555 11.4969 27.7113 11.6527 27.9445 11.8082L27.9445 11.8083L27.9476 11.8102C28.8901 12.3902 29.4 13.4062 29.4 14.5C29.4 15.1062 28.897 15.4584 28.3406 15.6624C28.067 15.7627 27.7923 15.8223 27.5851 15.8568C27.4818 15.8741 27.3957 15.8849 27.3358 15.8915C27.3058 15.8948 27.2824 15.897 27.2666 15.8984L27.2488 15.8998L27.2463 15.9C26.7368 15.9021 26.4 16.3274 26.4 16.75C26.4 17.1736 26.7384 17.6 27.25 17.6Z" fill="#ffffff" stroke="#ffffff" stroke-width="0.2"/>
<path d="M15.175 23.6C16.5052 23.6 17.6 22.5052 17.6 21.175V3.325C17.6 1.99477 16.5052 0.9 15.175 0.9H3.325C1.99477 0.9 0.9 1.99477 0.9 3.325V21.175C0.9 22.5052 1.99477 23.6 3.325 23.6H15.175ZM2.6 21.175V3.325C2.6 2.93023 2.93023 2.6 3.325 2.6H15.175C15.5698 2.6 15.9 2.93023 15.9 3.325V21.175C15.9 21.5698 15.5698 21.9 15.175 21.9H3.325C2.93023 21.9 2.6 21.5698 2.6 21.175Z" fill="#ffffff" stroke="#ffffff" stroke-width="0.2"/>
<path d="M5.5 20.6H13C13.8802 20.6 14.6 19.8802 14.6 19V5.5C14.6 4.61977 13.8802 3.9 13 3.9H5.5C4.61977 3.9 3.9 4.61977 3.9 5.5V19C3.9 19.8802 4.61977 20.6 5.5 20.6ZM5.6 5.6H12.9V18.9H5.6V5.6Z" fill="#ffffff" stroke="#ffffff" stroke-width="0.2"/>
<path d="M9.53267 10.5183L9.52649 10.5139L9.51972 10.5106C9.46147 10.4814 9.41606 10.4371 9.35821 10.3793L9.35441 10.3755C9.31792 10.339 9.27588 10.2969 9.22477 10.2597C9.52242 9.55765 10.0218 8.91961 10.5957 8.34571C10.9348 8.00666 10.9348 7.49334 10.5957 7.15429C10.2567 6.81524 9.74334 6.81524 9.40429 7.15429C8.98932 7.56926 8.32501 8.30866 7.90563 9.09022C7.69602 9.48086 7.54367 9.88915 7.51895 10.2772C7.494 10.669 7.5995 11.0409 7.90429 11.3457L7.90581 11.3472C8.05545 11.4969 8.21129 11.6527 8.44453 11.8082C9.31807 12.3906 9.9 13.41 9.9 14.5C9.9 15.1062 9.39697 15.4584 8.84057 15.6624C8.56705 15.7627 8.2923 15.8223 8.08512 15.8568C7.98176 15.8741 7.89574 15.8849 7.83579 15.8915C7.80583 15.8948 7.78241 15.897 7.76663 15.8984L7.74884 15.8998L7.7463 15.9C7.23675 15.9021 6.9 16.3274 6.9 16.75C6.9 16.97 7.009 17.1817 7.16366 17.3363C7.31832 17.491 7.52998 17.6 7.75 17.6V17.6002L7.75587 17.5998C8.40378 17.5617 9.35811 17.3716 10.154 16.9017C10.9534 16.4298 11.6 15.6699 11.6 14.5C11.6 12.8922 10.8339 11.4368 9.53267 10.5183Z" fill="#ffffff" stroke="#ffffff" stroke-width="0.2"/>
</svg>
