<svg width="15" height="15" viewBox="0 0 15 15" fill="none" xmlns="http://www.w3.org/2000/svg">
<g id="Iconly/Bulk/Message">
<path id="Fill 1" opacity="0.4" d="M13.1771 9.7442C13.1771 11.3088 11.9209 12.5763 10.3562 12.5819H10.3506H4.79301C3.23397 12.5819 1.96094 11.3201 1.96094 9.75541V9.74981C1.96094 9.74981 1.9643 7.26767 1.96879 6.01932C1.96935 5.7849 2.23854 5.65367 2.42192 5.79948C3.7544 6.8566 6.13727 8.7841 6.16699 8.80933C6.56517 9.12843 7.06989 9.30845 7.58583 9.30845C8.10178 9.30845 8.6065 9.12843 9.00468 8.80316C9.0344 8.78353 11.364 6.9138 12.7167 5.8393C12.9006 5.69293 13.1709 5.82415 13.1715 6.05801C13.1771 7.29683 13.1771 9.7442 13.1771 9.7442Z" fill="black"/>
<path id="Fill 4" d="M12.8897 3.98788C12.404 3.07264 11.4484 2.48828 10.3963 2.48828H4.79948C3.7474 2.48828 2.79179 3.07264 2.30613 3.98788C2.19733 4.19257 2.24893 4.44774 2.43007 4.59243L6.59406 7.92307C6.88568 8.1586 7.23899 8.27581 7.5923 8.27581C7.59454 8.27581 7.59622 8.27581 7.59791 8.27581C7.59959 8.27581 7.60183 8.27581 7.60351 8.27581C7.95682 8.27581 8.31013 8.1586 8.60175 7.92307L12.7657 4.59243C12.9469 4.44774 12.9985 4.19257 12.8897 3.98788Z" fill="black"/>
</g>
</svg>
