<svg width="36" height="36" viewBox="0 0 36 36" fill="none" xmlns="http://www.w3.org/2000/svg">
<path d="M35 11.1H3.56041L34.8797 6.13076L34.9775 6.11525L34.9629 6.0173L34.2149 0.985297L34.2001 0.885433L34.1004 0.901232L1.05235 6.13723L0.95367 6.15287L0.969218 6.25156L1.73301 11.1H1H0.9V11.2V35V35.1H1H35H35.1V35V11.2V11.1H35ZM25.6013 4.17419L25.8411 5.6428L24.3047 5.88381L24.0649 4.4152L25.6013 4.17419ZM27.7727 5.33981L27.5329 3.8712L29.0693 3.63019L29.3091 5.0988L27.7727 5.33981ZM22.1012 4.71789L22.371 6.18682L20.8027 6.4281L20.5629 4.9592L22.1012 4.71789ZM32.6052 3.08563L32.845 4.55423L31.2408 4.79637L31.001 3.32777L32.6052 3.08563ZM17.0946 5.50354L18.6653 5.2619L18.9053 6.73236L17.3347 7.00419L17.0946 5.50354ZM13.6269 6.0472L15.1633 5.80619L15.4031 7.2748L13.8667 7.51581L13.6269 6.0472ZM10.1589 6.5912L11.6953 6.35019L11.9351 7.8188L10.3987 8.05981L10.1589 6.5912ZM6.69091 7.1692L8.22732 6.92819L8.46709 8.3968L6.93068 8.63781L6.69091 7.1692ZM3.12105 7.71405L4.75918 7.47136L4.99895 8.93995L3.36082 9.18264L3.12105 7.71405ZM29.528 13V14.466H27.926V13H29.528ZM25.958 13V14.466H24.356V13H25.958ZM22.388 13V14.466H20.786V13H22.388ZM18.784 13V14.466H17.182V13H18.784ZM15.214 13V14.466H13.612V13H15.214ZM11.644 13V14.466H10.042V13H11.644ZM8.074 13V14.466H6.472V13H8.074ZM2.8 13H4.47V14.466H2.8V13ZM33.2 33.2H2.8V16.4H33.2V33.2ZM31.53 14.466V13H33.2V14.466H31.53Z" fill="#ba7999" stroke="#ba7999" stroke-width="0.2"/>
</svg>
