<svg width="28" height="33" viewBox="0 0 28 33" fill="none" xmlns="http://www.w3.org/2000/svg">
<path d="M11.7545 11.5641L24.8559 7.15611V2.99305L11.7545 7.03367V11.5641ZM5.87727 20.2575C7.1017 20.2575 8.32613 20.6248 9.30567 21.3595V6.17657C9.30567 5.56435 9.673 5.07458 10.1628 4.95214L25.713 0.0544129C26.4477 -0.190473 27.3048 0.421742 27.3048 1.27884C27.3048 1.27884 27.4272 18.5433 27.4272 20.1351C27.4272 23.441 24.7335 26.0123 21.55 26.0123C18.244 26.0123 15.6727 23.441 15.6727 20.1351C15.6727 16.9516 18.244 14.2578 21.55 14.2578C22.7744 14.2578 23.8764 14.6251 24.8559 15.2374V9.72741L11.7545 14.1354C11.7545 18.176 11.7545 22.0942 11.7545 26.1348C11.7545 29.4407 9.06079 32.012 5.87727 32.012C2.69375 32.012 0 29.3183 0 26.1348C0 22.9513 2.5713 20.2575 5.87727 20.2575ZM5.87727 22.7064C3.91818 22.7064 2.44886 24.2981 2.44886 26.1348C2.44886 28.0939 3.91818 29.5632 5.87727 29.5632C7.71391 29.5632 9.30567 27.9714 9.30567 26.1348C9.30567 24.2981 7.71391 22.7064 5.87727 22.7064ZM21.55 16.7067C19.5909 16.7067 18.1216 18.2984 18.1216 20.1351C18.1216 22.0942 19.5909 23.5635 21.55 23.5635C23.3866 23.5635 24.9784 22.0942 24.9784 20.1351C24.9784 18.2984 23.3866 16.7067 21.55 16.7067Z" fill="#ffffff"/>
</svg>
