<svg width="34" height="39" viewBox="0 0 34 39" fill="none" xmlns="http://www.w3.org/2000/svg">
<mask id="path-1-outside-1" maskUnits="userSpaceOnUse" x="0" y="0" width="34" height="39" fill="black">
<rect fill="white" width="34" height="39"/>
<path d="M1.55549 28.2269C0.48777 26.6254 1.55549 25.0238 2.62322 23.956V14.3465C1.02163 13.2788 0.48777 11.6772 1.55549 10.0756C2.62322 8.47406 4.2248 8.47406 5.82639 9.00792C9.02956 7.40634 11.6989 5.80475 14.902 3.66931C14.3682 2.60158 15.4359 1 17.0375 1C18.6391 1 20.2406 2.60158 19.7068 4.20317C22.91 5.80475 25.5793 7.40634 28.7824 9.54179C30.384 8.47406 31.9856 8.47406 33.0533 10.0756C33.5872 11.6772 33.0533 13.2788 31.4517 14.3465V24.4899C33.0533 25.0238 33.5872 26.6254 33.0533 28.2269C31.9856 29.8285 30.384 30.3624 28.7824 29.2947C25.5793 30.8962 22.91 32.4978 19.7068 34.6333C19.7068 36.2349 18.6391 37.8364 17.0375 37.8364C15.4359 37.8364 13.8343 36.2349 14.3682 34.6333C11.165 33.0317 8.49569 31.4301 5.29252 29.2947C4.2248 30.3624 2.08935 29.8285 1.55549 28.2269ZM18.6391 6.33862L23.4438 14.8804L27.7147 12.2111C27.7147 11.6772 27.7147 10.6095 28.2486 10.0756C25.0454 8.47406 22.3761 6.87248 19.7068 5.27089C19.1729 5.80475 19.1729 5.80475 18.6391 6.33862ZM22.91 15.4143L17.5713 6.87248V16.482C18.1052 16.482 18.6391 17.0158 19.1729 17.5497L22.91 15.4143ZM23.9777 15.9481L28.7824 24.4899C29.3163 24.4899 29.8502 23.956 29.8502 23.956V14.3465C28.7824 14.3465 28.2486 13.8127 27.7147 13.2788L23.9777 15.9481ZM28.2486 25.0238L23.4438 16.482L19.7068 18.0836C19.7068 18.6174 19.7068 19.1513 19.7068 20.219L28.2486 25.0238ZM27.7147 27.6931H17.5713V31.964C18.6391 31.964 19.1729 32.4978 19.7068 33.5656C22.3761 31.4301 25.0454 29.8285 28.2486 28.2269C27.7147 28.2269 27.7147 27.6931 27.7147 27.6931ZM17.5713 26.6254H27.7147V26.0915L19.1729 21.2867C18.6391 21.2867 18.1052 21.8206 17.5713 21.8206V26.6254ZM16.5036 27.6931H6.36025V28.2269C9.02956 29.8285 11.6989 31.4301 14.902 33.0317C15.4359 32.4978 15.9698 31.964 17.0375 31.4301C16.5036 31.964 16.5036 27.6931 16.5036 27.6931ZM6.89411 26.6254H17.0375V21.8206C16.5036 21.8206 15.9698 21.2867 15.4359 20.7529L6.36025 26.0915L6.89411 26.6254ZM5.29252 24.4899L10.0973 15.9481L5.82639 13.2788C5.29252 13.8127 4.75866 14.3465 3.69094 14.3465V23.956C4.2248 23.956 4.75866 23.956 5.29252 24.4899ZM11.165 16.482L6.36025 25.0238L14.902 20.219C14.902 19.6852 14.902 19.1513 14.902 18.0836C14.3682 18.0836 11.165 16.482 11.165 16.482ZM10.6311 14.8804C12.2327 12.2111 13.8343 9.00792 15.4359 6.33862C15.4359 5.80475 14.902 5.80475 14.902 5.27089C11.6989 6.87248 9.02956 8.47406 6.36025 10.0756C6.89411 10.6095 6.89411 11.6772 6.36025 12.2111L10.6311 14.8804ZM16.5036 6.87248L11.6989 15.4143L14.902 17.5497C15.4359 17.0158 15.9698 16.482 16.5036 16.482V6.87248ZM2.62322 10.6095C2.08935 11.6772 2.08935 12.745 3.15708 12.745C4.2248 13.2788 5.29252 12.745 5.29252 12.2111C5.82639 11.1434 5.29252 10.0756 4.75866 10.0756C3.69094 9.54179 2.62322 10.0756 2.62322 10.6095ZM17.0375 36.2349C18.1052 36.2349 18.6391 35.701 18.6391 34.6333C18.6391 33.5656 18.1052 33.0317 17.0375 33.0317C15.9698 33.0317 15.4359 33.5656 15.4359 34.6333C15.4359 35.701 15.9698 36.2349 17.0375 36.2349ZM31.9856 27.6931C32.5195 26.6254 31.9856 25.5576 31.4517 25.5576C30.384 25.0238 29.3163 25.5576 29.3163 26.0915C28.7824 26.6254 28.7824 27.6931 29.8502 28.2269C30.384 28.7608 31.4517 28.7608 31.9856 27.6931ZM31.9856 10.6095C31.4517 10.0756 30.384 9.54179 29.8502 10.0756C28.7824 10.6095 28.7824 11.6772 28.7824 12.2111C29.3163 13.2788 30.384 13.2788 30.9179 12.745C31.9856 12.745 32.5195 11.6772 31.9856 10.6095ZM17.0375 2.06772C15.9698 2.06772 15.4359 2.60158 15.4359 3.66931C15.4359 4.73703 15.9698 5.27089 17.0375 5.27089C18.1052 5.27089 18.6391 4.73703 18.6391 3.66931C18.6391 3.13545 18.1052 2.06772 17.0375 2.06772ZM17.0375 17.5497C15.9698 17.5497 15.4359 18.0836 15.4359 19.1513C15.4359 20.219 15.9698 20.7529 17.0375 20.7529C18.1052 20.7529 18.6391 20.219 18.6391 19.1513C18.6391 18.0836 18.1052 17.5497 17.0375 17.5497ZM2.62322 27.6931C3.15708 28.7608 4.2248 28.7608 4.75866 28.2269C5.29252 27.6931 5.82639 26.6254 5.29252 26.0915C4.75866 25.0238 3.69094 25.0238 3.15708 25.5576C2.08935 26.0915 2.08935 27.1592 2.62322 27.6931Z"/>
</mask>
<path d="M1.55549 28.2269C0.48777 26.6254 1.55549 25.0238 2.62322 23.956V14.3465C1.02163 13.2788 0.48777 11.6772 1.55549 10.0756C2.62322 8.47406 4.2248 8.47406 5.82639 9.00792C9.02956 7.40634 11.6989 5.80475 14.902 3.66931C14.3682 2.60158 15.4359 1 17.0375 1C18.6391 1 20.2406 2.60158 19.7068 4.20317C22.91 5.80475 25.5793 7.40634 28.7824 9.54179C30.384 8.47406 31.9856 8.47406 33.0533 10.0756C33.5872 11.6772 33.0533 13.2788 31.4517 14.3465V24.4899C33.0533 25.0238 33.5872 26.6254 33.0533 28.2269C31.9856 29.8285 30.384 30.3624 28.7824 29.2947C25.5793 30.8962 22.91 32.4978 19.7068 34.6333C19.7068 36.2349 18.6391 37.8364 17.0375 37.8364C15.4359 37.8364 13.8343 36.2349 14.3682 34.6333C11.165 33.0317 8.49569 31.4301 5.29252 29.2947C4.2248 30.3624 2.08935 29.8285 1.55549 28.2269ZM18.6391 6.33862L23.4438 14.8804L27.7147 12.2111C27.7147 11.6772 27.7147 10.6095 28.2486 10.0756C25.0454 8.47406 22.3761 6.87248 19.7068 5.27089C19.1729 5.80475 19.1729 5.80475 18.6391 6.33862ZM22.91 15.4143L17.5713 6.87248V16.482C18.1052 16.482 18.6391 17.0158 19.1729 17.5497L22.91 15.4143ZM23.9777 15.9481L28.7824 24.4899C29.3163 24.4899 29.8502 23.956 29.8502 23.956V14.3465C28.7824 14.3465 28.2486 13.8127 27.7147 13.2788L23.9777 15.9481ZM28.2486 25.0238L23.4438 16.482L19.7068 18.0836C19.7068 18.6174 19.7068 19.1513 19.7068 20.219L28.2486 25.0238ZM27.7147 27.6931H17.5713V31.964C18.6391 31.964 19.1729 32.4978 19.7068 33.5656C22.3761 31.4301 25.0454 29.8285 28.2486 28.2269C27.7147 28.2269 27.7147 27.6931 27.7147 27.6931ZM17.5713 26.6254H27.7147V26.0915L19.1729 21.2867C18.6391 21.2867 18.1052 21.8206 17.5713 21.8206V26.6254ZM16.5036 27.6931H6.36025V28.2269C9.02956 29.8285 11.6989 31.4301 14.902 33.0317C15.4359 32.4978 15.9698 31.964 17.0375 31.4301C16.5036 31.964 16.5036 27.6931 16.5036 27.6931ZM6.89411 26.6254H17.0375V21.8206C16.5036 21.8206 15.9698 21.2867 15.4359 20.7529L6.36025 26.0915L6.89411 26.6254ZM5.29252 24.4899L10.0973 15.9481L5.82639 13.2788C5.29252 13.8127 4.75866 14.3465 3.69094 14.3465V23.956C4.2248 23.956 4.75866 23.956 5.29252 24.4899ZM11.165 16.482L6.36025 25.0238L14.902 20.219C14.902 19.6852 14.902 19.1513 14.902 18.0836C14.3682 18.0836 11.165 16.482 11.165 16.482ZM10.6311 14.8804C12.2327 12.2111 13.8343 9.00792 15.4359 6.33862C15.4359 5.80475 14.902 5.80475 14.902 5.27089C11.6989 6.87248 9.02956 8.47406 6.36025 10.0756C6.89411 10.6095 6.89411 11.6772 6.36025 12.2111L10.6311 14.8804ZM16.5036 6.87248L11.6989 15.4143L14.902 17.5497C15.4359 17.0158 15.9698 16.482 16.5036 16.482V6.87248ZM2.62322 10.6095C2.08935 11.6772 2.08935 12.745 3.15708 12.745C4.2248 13.2788 5.29252 12.745 5.29252 12.2111C5.82639 11.1434 5.29252 10.0756 4.75866 10.0756C3.69094 9.54179 2.62322 10.0756 2.62322 10.6095ZM17.0375 36.2349C18.1052 36.2349 18.6391 35.701 18.6391 34.6333C18.6391 33.5656 18.1052 33.0317 17.0375 33.0317C15.9698 33.0317 15.4359 33.5656 15.4359 34.6333C15.4359 35.701 15.9698 36.2349 17.0375 36.2349ZM31.9856 27.6931C32.5195 26.6254 31.9856 25.5576 31.4517 25.5576C30.384 25.0238 29.3163 25.5576 29.3163 26.0915C28.7824 26.6254 28.7824 27.6931 29.8502 28.2269C30.384 28.7608 31.4517 28.7608 31.9856 27.6931ZM31.9856 10.6095C31.4517 10.0756 30.384 9.54179 29.8502 10.0756C28.7824 10.6095 28.7824 11.6772 28.7824 12.2111C29.3163 13.2788 30.384 13.2788 30.9179 12.745C31.9856 12.745 32.5195 11.6772 31.9856 10.6095ZM17.0375 2.06772C15.9698 2.06772 15.4359 2.60158 15.4359 3.66931C15.4359 4.73703 15.9698 5.27089 17.0375 5.27089C18.1052 5.27089 18.6391 4.73703 18.6391 3.66931C18.6391 3.13545 18.1052 2.06772 17.0375 2.06772ZM17.0375 17.5497C15.9698 17.5497 15.4359 18.0836 15.4359 19.1513C15.4359 20.219 15.9698 20.7529 17.0375 20.7529C18.1052 20.7529 18.6391 20.219 18.6391 19.1513C18.6391 18.0836 18.1052 17.5497 17.0375 17.5497ZM2.62322 27.6931C3.15708 28.7608 4.2248 28.7608 4.75866 28.2269C5.29252 27.6931 5.82639 26.6254 5.29252 26.0915C4.75866 25.0238 3.69094 25.0238 3.15708 25.5576C2.08935 26.0915 2.08935 27.1592 2.62322 27.6931Z" fill="#ffffff"/>
<path d="M1.55549 28.2269C0.48777 26.6254 1.55549 25.0238 2.62322 23.956V14.3465C1.02163 13.2788 0.48777 11.6772 1.55549 10.0756C2.62322 8.47406 4.2248 8.47406 5.82639 9.00792C9.02956 7.40634 11.6989 5.80475 14.902 3.66931C14.3682 2.60158 15.4359 1 17.0375 1C18.6391 1 20.2406 2.60158 19.7068 4.20317C22.91 5.80475 25.5793 7.40634 28.7824 9.54179C30.384 8.47406 31.9856 8.47406 33.0533 10.0756C33.5872 11.6772 33.0533 13.2788 31.4517 14.3465V24.4899C33.0533 25.0238 33.5872 26.6254 33.0533 28.2269C31.9856 29.8285 30.384 30.3624 28.7824 29.2947C25.5793 30.8962 22.91 32.4978 19.7068 34.6333C19.7068 36.2349 18.6391 37.8364 17.0375 37.8364C15.4359 37.8364 13.8343 36.2349 14.3682 34.6333C11.165 33.0317 8.49569 31.4301 5.29252 29.2947C4.2248 30.3624 2.08935 29.8285 1.55549 28.2269ZM18.6391 6.33862L23.4438 14.8804L27.7147 12.2111C27.7147 11.6772 27.7147 10.6095 28.2486 10.0756C25.0454 8.47406 22.3761 6.87248 19.7068 5.27089C19.1729 5.80475 19.1729 5.80475 18.6391 6.33862ZM22.91 15.4143L17.5713 6.87248V16.482C18.1052 16.482 18.6391 17.0158 19.1729 17.5497L22.91 15.4143ZM23.9777 15.9481L28.7824 24.4899C29.3163 24.4899 29.8502 23.956 29.8502 23.956V14.3465C28.7824 14.3465 28.2486 13.8127 27.7147 13.2788L23.9777 15.9481ZM28.2486 25.0238L23.4438 16.482L19.7068 18.0836C19.7068 18.6174 19.7068 19.1513 19.7068 20.219L28.2486 25.0238ZM27.7147 27.6931H17.5713V31.964C18.6391 31.964 19.1729 32.4978 19.7068 33.5656C22.3761 31.4301 25.0454 29.8285 28.2486 28.2269C27.7147 28.2269 27.7147 27.6931 27.7147 27.6931ZM17.5713 26.6254H27.7147V26.0915L19.1729 21.2867C18.6391 21.2867 18.1052 21.8206 17.5713 21.8206V26.6254ZM16.5036 27.6931H6.36025V28.2269C9.02956 29.8285 11.6989 31.4301 14.902 33.0317C15.4359 32.4978 15.9698 31.964 17.0375 31.4301C16.5036 31.964 16.5036 27.6931 16.5036 27.6931ZM6.89411 26.6254H17.0375V21.8206C16.5036 21.8206 15.9698 21.2867 15.4359 20.7529L6.36025 26.0915L6.89411 26.6254ZM5.29252 24.4899L10.0973 15.9481L5.82639 13.2788C5.29252 13.8127 4.75866 14.3465 3.69094 14.3465V23.956C4.2248 23.956 4.75866 23.956 5.29252 24.4899ZM11.165 16.482L6.36025 25.0238L14.902 20.219C14.902 19.6852 14.902 19.1513 14.902 18.0836C14.3682 18.0836 11.165 16.482 11.165 16.482ZM10.6311 14.8804C12.2327 12.2111 13.8343 9.00792 15.4359 6.33862C15.4359 5.80475 14.902 5.80475 14.902 5.27089C11.6989 6.87248 9.02956 8.47406 6.36025 10.0756C6.89411 10.6095 6.89411 11.6772 6.36025 12.2111L10.6311 14.8804ZM16.5036 6.87248L11.6989 15.4143L14.902 17.5497C15.4359 17.0158 15.9698 16.482 16.5036 16.482V6.87248ZM2.62322 10.6095C2.08935 11.6772 2.08935 12.745 3.15708 12.745C4.2248 13.2788 5.29252 12.745 5.29252 12.2111C5.82639 11.1434 5.29252 10.0756 4.75866 10.0756C3.69094 9.54179 2.62322 10.0756 2.62322 10.6095ZM17.0375 36.2349C18.1052 36.2349 18.6391 35.701 18.6391 34.6333C18.6391 33.5656 18.1052 33.0317 17.0375 33.0317C15.9698 33.0317 15.4359 33.5656 15.4359 34.6333C15.4359 35.701 15.9698 36.2349 17.0375 36.2349ZM31.9856 27.6931C32.5195 26.6254 31.9856 25.5576 31.4517 25.5576C30.384 25.0238 29.3163 25.5576 29.3163 26.0915C28.7824 26.6254 28.7824 27.6931 29.8502 28.2269C30.384 28.7608 31.4517 28.7608 31.9856 27.6931ZM31.9856 10.6095C31.4517 10.0756 30.384 9.54179 29.8502 10.0756C28.7824 10.6095 28.7824 11.6772 28.7824 12.2111C29.3163 13.2788 30.384 13.2788 30.9179 12.745C31.9856 12.745 32.5195 11.6772 31.9856 10.6095ZM17.0375 2.06772C15.9698 2.06772 15.4359 2.60158 15.4359 3.66931C15.4359 4.73703 15.9698 5.27089 17.0375 5.27089C18.1052 5.27089 18.6391 4.73703 18.6391 3.66931C18.6391 3.13545 18.1052 2.06772 17.0375 2.06772ZM17.0375 17.5497C15.9698 17.5497 15.4359 18.0836 15.4359 19.1513C15.4359 20.219 15.9698 20.7529 17.0375 20.7529C18.1052 20.7529 18.6391 20.219 18.6391 19.1513C18.6391 18.0836 18.1052 17.5497 17.0375 17.5497ZM2.62322 27.6931C3.15708 28.7608 4.2248 28.7608 4.75866 28.2269C5.29252 27.6931 5.82639 26.6254 5.29252 26.0915C4.75866 25.0238 3.69094 25.0238 3.15708 25.5576C2.08935 26.0915 2.08935 27.1592 2.62322 27.6931Z" stroke="#ffffff" stroke-width="0.6" mask="url(#path-1-outside-1)"/>
</svg>
