<svg width="13" height="15" viewBox="0 0 13 15" fill="none" xmlns="http://www.w3.org/2000/svg">
<path fill-rule="evenodd" clip-rule="evenodd" d="M3.72531 5.39355H9.42024C11.0067 5.39355 12.293 6.65147 12.293 8.20297V11.5253C12.293 13.0768 11.0067 14.3347 9.42024 14.3347H3.72531C2.13882 14.3347 0.852539 13.0768 0.852539 11.5253V8.20297C0.852539 6.65147 2.13882 5.39355 3.72531 5.39355ZM6.56937 11.1921C6.90444 11.1921 7.17114 10.9313 7.17114 10.6037V9.11903C7.17114 8.79803 6.90444 8.53722 6.56937 8.53722C6.24113 8.53722 5.97444 8.79803 5.97444 9.11903V10.6037C5.97444 10.9313 6.24113 11.1921 6.56937 11.1921Z" fill="black"/>
<path opacity="0.4" d="M10.2897 4.50631V5.49606C10.0503 5.42918 9.79732 5.39574 9.53746 5.39574H9.09297V4.50631C9.09297 3.14875 7.96465 2.04531 6.57648 2.04531C5.1883 2.04531 4.05999 3.14206 4.05315 4.49293V5.39574H3.6155C3.3488 5.39574 3.09579 5.42918 2.85645 5.50274V4.50631C2.86328 2.50006 4.52499 0.875 6.5628 0.875C8.62797 0.875 10.2897 2.50006 10.2897 4.50631Z" fill="black"/>
</svg>
