<svg width="41" height="40" viewBox="0 0 41 40" fill="none" xmlns="http://www.w3.org/2000/svg">
<path d="M40.6149 34.6518L29.1535 9.33008C29.0203 8.93026 28.6204 8.66372 28.2206 8.53045C27.8208 8.39717 27.2877 8.53045 27.0212 8.93026L9.96232 25.9891C9.69577 26.2557 9.5625 26.7887 9.5625 27.1886C9.69577 27.5884 9.96232 27.9882 10.3621 28.1215L35.6839 39.5829C36.217 39.8494 36.75 39.9827 37.4164 39.9827C38.6159 39.9827 39.8153 39.3163 40.4817 38.3834C41.148 37.3173 41.148 35.9845 40.6149 34.6518ZM22.3566 30.5204L31.6857 21.1913L35.2841 28.9211L30.2197 33.9855L22.3566 30.5204ZM27.421 12.2621L30.353 18.7924L19.6912 29.4542L13.1609 26.5222L27.421 12.2621ZM38.216 36.9174C37.9495 37.3173 37.4164 37.4505 36.8833 37.184L32.7519 35.3182L36.3502 31.7198L38.216 35.8513C38.3493 36.2511 38.3493 36.6509 38.216 36.9174Z" fill="#F128DD"/>
<path d="M18.3591 15.9927C18.6256 15.9927 18.7589 15.9927 19.0255 15.8594C19.6918 15.4596 19.9584 14.66 19.5585 13.9936C17.9593 11.0616 17.826 7.99634 19.292 5.59744C20.3582 3.8649 22.0907 2.66545 23.69 2.66545C24.4896 2.66545 25.0227 2.13236 25.0227 1.33272C25.0227 0.533089 24.4896 0 23.69 0C21.0245 0 18.4924 1.59927 16.8931 4.26471C15.0273 7.46325 15.0273 11.5947 17.1596 15.3263C17.4262 15.7261 17.826 15.9927 18.3591 15.9927Z" fill="#F128DD"/>
<path d="M2.89913 11.8611C4.63167 11.1947 6.63076 11.1947 8.49657 11.9943C10.6289 12.9273 12.3615 14.5265 13.0278 16.5256C13.2944 17.0587 13.6942 17.3252 14.2273 17.3252C14.3605 17.3252 14.4938 17.3252 14.7604 17.192C15.4267 16.9254 15.8265 16.1258 15.56 15.4594C14.6271 12.9273 12.3615 10.6616 9.56275 9.59545C7.03057 8.52927 4.23186 8.52927 1.83296 9.46217C1.16659 9.72872 0.900049 10.5284 1.16659 11.1947C1.43314 11.8611 2.23277 12.1276 2.89913 11.8611Z" fill="#F128DD"/>
<path d="M12.4951 21.19C13.1615 21.4566 13.9611 21.0568 14.2276 20.3904C14.4942 19.724 14.0944 18.9244 13.428 18.6579C11.1624 17.8582 7.43076 18.1248 4.63204 20.3904C1.9666 22.3895 0.633876 25.588 1.03369 29.4529C1.03369 30.1193 1.70005 30.6524 2.36642 30.6524H2.49969C3.16605 30.5191 3.83241 29.986 3.69914 29.1864C3.29932 25.588 4.89859 23.5889 6.23131 22.5228C8.2304 21.0568 11.0291 20.6569 12.4951 21.19Z" fill="#F128DD"/>
<path d="M10.3627 6.66292C11.8348 6.66292 13.0282 5.46956 13.0282 3.99748C13.0282 2.52539 11.8348 1.33203 10.3627 1.33203C8.89063 1.33203 7.69727 2.52539 7.69727 3.99748C7.69727 5.46956 8.89063 6.66292 10.3627 6.66292Z" fill="#F128DD"/>
<path d="M5.03263 18.658C6.50472 18.658 7.69808 17.4647 7.69808 15.9926C7.69808 14.5205 6.50472 13.3271 5.03263 13.3271C3.56055 13.3271 2.36719 14.5205 2.36719 15.9926C2.36719 17.4647 3.56055 18.658 5.03263 18.658Z" fill="#F128DD"/>
</svg>
