<svg width="45" height="60" viewBox="0 0 45 60" fill="none" xmlns="http://www.w3.org/2000/svg">
<path d="M0 7.5C0 5.51088 0.790176 3.60322 2.1967 2.1967C3.60322 0.790176 5.51088 0 7.5 0L37.5 0C39.4891 0 41.3968 0.790176 42.8033 2.1967C44.2098 3.60322 45 5.51088 45 7.5V52.5C45 54.4891 44.2098 56.3968 42.8033 57.8033C41.3968 59.2098 39.4891 60 37.5 60H7.5C5.51088 60 3.60322 59.2098 2.1967 57.8033C0.790176 56.3968 0 54.4891 0 52.5V7.5ZM16.875 7.5C16.3777 7.5 15.9008 7.69754 15.5492 8.04918C15.1975 8.40081 15 8.87772 15 9.375C15 9.87228 15.1975 10.3492 15.5492 10.7008C15.9008 11.0525 16.3777 11.25 16.875 11.25H28.125C28.6223 11.25 29.0992 11.0525 29.4508 10.7008C29.8025 10.3492 30 9.87228 30 9.375C30 8.87772 29.8025 8.40081 29.4508 8.04918C29.0992 7.69754 28.6223 7.5 28.125 7.5H16.875ZM22.5 41.25C25.4837 41.25 28.3452 40.0647 30.455 37.955C32.5647 35.8452 33.75 32.9837 33.75 30C33.75 27.0163 32.5647 24.1548 30.455 22.045C28.3452 19.9353 25.4837 18.75 22.5 18.75C19.5163 18.75 16.6548 19.9353 14.545 22.045C12.4353 24.1548 11.25 27.0163 11.25 30C11.25 32.9837 12.4353 35.8452 14.545 37.955C16.6548 40.0647 19.5163 41.25 22.5 41.25ZM41.25 51.5812C38.0475 48.0938 32.3363 45 22.5 45C12.6638 45 6.9525 48.0975 3.75 51.5812V52.5C3.75 53.4946 4.14509 54.4484 4.84835 55.1516C5.55161 55.8549 6.50544 56.25 7.5 56.25H37.5C38.4946 56.25 39.4484 55.8549 40.1516 55.1516C40.8549 54.4484 41.25 53.4946 41.25 52.5V51.5812Z" fill="black"/>
</svg>
