<svg width="44" height="43" viewBox="0 0 44 43" fill="none" xmlns="http://www.w3.org/2000/svg">
<mask id="path-1-outside-1" maskUnits="userSpaceOnUse" x="-0.396484" y="0" width="44" height="43" fill="black">
<rect fill="white" x="-0.396484" width="44" height="43"/>
<path d="M42.929 24.0985C42.4342 17.1004 36.6378 11.6575 29.6397 11.5868C27.307 3.74046 19.0366 -0.712847 11.1903 1.61984C3.34398 3.95253 -1.10933 12.223 1.22336 20.0693C2.42504 24.2398 5.4646 27.6328 9.35242 29.4C7.93867 30.1776 6.66629 31.0258 5.53529 32.0862L3.48536 33.924C2.63711 34.7016 2.56642 36.0447 3.34398 36.8929C3.41467 37.0343 3.55604 37.105 3.62673 37.2463L5.88873 38.9428C9.14036 41.3462 13.0989 42.6893 17.1987 42.6893H19.2487C23.3485 42.6893 27.307 41.3462 30.5587 38.9428L31.3362 38.3773C38.0515 37.3877 42.9997 31.7327 42.9997 25.0174C42.9997 24.8053 42.9997 24.664 42.9997 24.4519C42.9997 24.3105 42.9997 24.2398 42.929 24.0985ZM40.1015 30.3897C40.0308 30.1069 39.748 29.9655 39.4653 29.9655H34.7999L33.1741 28.3397L34.4465 23.9571L36.5671 22.9675L40.4549 25.5829C40.5963 25.6536 40.7377 25.7243 40.879 25.7243C41.0204 25.7243 41.0911 25.7243 41.2325 25.6536L41.5859 25.4415C41.5152 27.2087 41.0911 28.9759 40.2429 30.531L40.1015 30.3897ZM32.3965 33.3585L30.9828 32.0862C29.7811 30.9552 28.3674 30.0362 26.8829 29.2587H32.0431L33.5982 30.8138L32.3965 33.3585ZM5.46461 6.85071L14.4419 15.828L12.1799 18.09C9.70585 15.828 6.59561 14.485 3.27329 14.2729L2.14229 14.2022C2.49573 11.4454 3.62673 8.90065 5.46461 6.85071ZM13.8764 3.66978C14.0885 6.99209 15.4315 10.1023 17.6935 12.5764L15.4315 14.8384L6.45423 5.86109C8.50417 4.02322 11.0489 2.89222 13.735 2.53878L13.8764 3.66978ZM25.3985 6.85071C26.6709 8.26446 27.5898 9.89028 28.1553 11.6575C25.8226 11.8695 23.6313 12.7178 21.7227 14.1315C20.9452 13.7074 20.2383 13.1419 19.6021 12.5764L25.3985 6.85071ZM32.8207 13.4247L33.0327 13.9902L29.569 16.3935L26.176 13.9902L26.3881 13.4247C28.438 12.8592 30.7 12.8592 32.8207 13.4247ZM32.8914 23.8864L32.962 24.0278L31.9017 27.8449H27.307L26.176 23.8864L29.569 21.6244L32.8914 23.8864ZM25.2571 22.8261L22.3589 21.6951L21.0865 18.4435C21.0159 18.3021 20.8745 18.1607 20.7331 18.09L20.0969 17.7366C21.2986 16.1815 22.8537 14.9091 24.6916 14.1315C24.6209 14.4143 24.6916 14.7677 24.9744 14.9091L28.9329 17.6659V20.4227L25.2571 22.8261ZM19.2487 18.8676L19.8142 19.1503L20.9452 21.9778L18.1177 24.8053L17.5522 24.5933C17.6229 22.614 18.1884 20.6348 19.2487 18.8676ZM20.5917 15.0505C19.8142 15.7573 19.1073 16.5349 18.5418 17.3832C18.4711 17.4538 18.4004 17.5245 18.4004 17.5952V17.6659L16.4212 15.828L18.6832 13.566C19.2487 14.1315 19.9555 14.6263 20.5917 15.0505ZM15.4315 16.8177L17.5522 18.9383C16.7746 20.4934 16.2798 22.2606 16.1384 24.0278C15.5022 22.1899 14.4419 20.4934 13.1695 19.009L15.4315 16.8177ZM17.7642 27.138C17.6935 26.7846 17.6935 26.5018 17.6229 26.1484L17.9763 26.2898C18.047 26.4312 18.1884 26.4312 18.259 26.4312C18.4711 26.4312 18.6125 26.3605 18.7539 26.2191L21.9348 23.0382L24.6916 24.1692L25.964 28.7638C25.964 28.8345 25.964 28.8345 26.0347 28.9052C23.6313 27.7035 20.9452 27.138 18.259 27.138H17.7642ZM39.2532 17.9487C40.5256 19.7158 41.3032 21.7658 41.5152 23.8864L40.9497 24.1692L37.486 21.8365L38.617 17.878H39.2532V17.9487ZM38.0515 16.5349C37.6981 16.5349 37.4154 16.747 37.3447 17.0297L36.0016 21.6244L33.8103 22.7554L30.2759 20.4227V17.6659L34.2344 14.9091C34.5172 14.7677 34.6585 14.4143 34.5172 14.1315C35.8602 14.697 37.0619 15.4746 38.0515 16.5349ZM24.4089 5.86109L18.6832 11.5868C16.7039 9.39546 15.5022 6.56797 15.2902 3.5284L15.2195 2.3974C18.6125 2.32671 21.8641 3.59909 24.4089 5.86109ZM2.00092 15.616L3.13192 15.6867C6.10079 15.8987 8.92829 17.1004 11.1903 19.0797L5.46461 24.8053C3.20261 22.2606 1.93023 19.009 2.00092 15.616ZM6.45423 25.795L12.2506 20.0693C14.0885 22.1192 15.2195 24.664 15.5729 27.3501C14.0885 27.5622 12.604 27.9863 11.1903 28.5518C9.42311 27.9863 7.79729 27.0673 6.45423 25.795ZM29.7811 37.8118C26.7415 40.0738 23.0658 41.2755 19.2487 41.2755H17.1987C13.4523 41.2755 9.77654 40.0738 6.73698 37.8118L4.47498 36.1153C4.33361 35.974 4.19223 35.7619 4.19223 35.5498C4.19223 35.3378 4.26292 35.1257 4.40429 34.9843L6.45423 33.1465C7.86798 31.8741 9.56448 30.8138 11.3317 30.0362C11.473 30.0362 11.5437 29.9655 11.6144 29.8948C17.9056 27.2794 25.045 28.5518 30.0639 33.1465L32.0431 34.9843C32.1845 35.1257 32.2552 35.3378 32.2552 35.5498C32.2552 35.7619 32.1138 35.974 31.9724 36.1153L29.7811 37.8118ZM33.5275 36.3981C33.5982 36.186 33.6689 35.9033 33.7396 35.6912C33.7396 35.2671 33.6689 34.843 33.4569 34.4895L35.012 31.3793H39.1119L39.4653 32.0155C37.9102 33.9947 35.8602 35.5498 33.5275 36.3981Z"/>
</mask>
<path d="M42.929 24.0985C42.4342 17.1004 36.6378 11.6575 29.6397 11.5868C27.307 3.74046 19.0366 -0.712847 11.1903 1.61984C3.34398 3.95253 -1.10933 12.223 1.22336 20.0693C2.42504 24.2398 5.4646 27.6328 9.35242 29.4C7.93867 30.1776 6.66629 31.0258 5.53529 32.0862L3.48536 33.924C2.63711 34.7016 2.56642 36.0447 3.34398 36.8929C3.41467 37.0343 3.55604 37.105 3.62673 37.2463L5.88873 38.9428C9.14036 41.3462 13.0989 42.6893 17.1987 42.6893H19.2487C23.3485 42.6893 27.307 41.3462 30.5587 38.9428L31.3362 38.3773C38.0515 37.3877 42.9997 31.7327 42.9997 25.0174C42.9997 24.8053 42.9997 24.664 42.9997 24.4519C42.9997 24.3105 42.9997 24.2398 42.929 24.0985ZM40.1015 30.3897C40.0308 30.1069 39.748 29.9655 39.4653 29.9655H34.7999L33.1741 28.3397L34.4465 23.9571L36.5671 22.9675L40.4549 25.5829C40.5963 25.6536 40.7377 25.7243 40.879 25.7243C41.0204 25.7243 41.0911 25.7243 41.2325 25.6536L41.5859 25.4415C41.5152 27.2087 41.0911 28.9759 40.2429 30.531L40.1015 30.3897ZM32.3965 33.3585L30.9828 32.0862C29.7811 30.9552 28.3674 30.0362 26.8829 29.2587H32.0431L33.5982 30.8138L32.3965 33.3585ZM5.46461 6.85071L14.4419 15.828L12.1799 18.09C9.70585 15.828 6.59561 14.485 3.27329 14.2729L2.14229 14.2022C2.49573 11.4454 3.62673 8.90065 5.46461 6.85071ZM13.8764 3.66978C14.0885 6.99209 15.4315 10.1023 17.6935 12.5764L15.4315 14.8384L6.45423 5.86109C8.50417 4.02322 11.0489 2.89222 13.735 2.53878L13.8764 3.66978ZM25.3985 6.85071C26.6709 8.26446 27.5898 9.89028 28.1553 11.6575C25.8226 11.8695 23.6313 12.7178 21.7227 14.1315C20.9452 13.7074 20.2383 13.1419 19.6021 12.5764L25.3985 6.85071ZM32.8207 13.4247L33.0327 13.9902L29.569 16.3935L26.176 13.9902L26.3881 13.4247C28.438 12.8592 30.7 12.8592 32.8207 13.4247ZM32.8914 23.8864L32.962 24.0278L31.9017 27.8449H27.307L26.176 23.8864L29.569 21.6244L32.8914 23.8864ZM25.2571 22.8261L22.3589 21.6951L21.0865 18.4435C21.0159 18.3021 20.8745 18.1607 20.7331 18.09L20.0969 17.7366C21.2986 16.1815 22.8537 14.9091 24.6916 14.1315C24.6209 14.4143 24.6916 14.7677 24.9744 14.9091L28.9329 17.6659V20.4227L25.2571 22.8261ZM19.2487 18.8676L19.8142 19.1503L20.9452 21.9778L18.1177 24.8053L17.5522 24.5933C17.6229 22.614 18.1884 20.6348 19.2487 18.8676ZM20.5917 15.0505C19.8142 15.7573 19.1073 16.5349 18.5418 17.3832C18.4711 17.4538 18.4004 17.5245 18.4004 17.5952V17.6659L16.4212 15.828L18.6832 13.566C19.2487 14.1315 19.9555 14.6263 20.5917 15.0505ZM15.4315 16.8177L17.5522 18.9383C16.7746 20.4934 16.2798 22.2606 16.1384 24.0278C15.5022 22.1899 14.4419 20.4934 13.1695 19.009L15.4315 16.8177ZM17.7642 27.138C17.6935 26.7846 17.6935 26.5018 17.6229 26.1484L17.9763 26.2898C18.047 26.4312 18.1884 26.4312 18.259 26.4312C18.4711 26.4312 18.6125 26.3605 18.7539 26.2191L21.9348 23.0382L24.6916 24.1692L25.964 28.7638C25.964 28.8345 25.964 28.8345 26.0347 28.9052C23.6313 27.7035 20.9452 27.138 18.259 27.138H17.7642ZM39.2532 17.9487C40.5256 19.7158 41.3032 21.7658 41.5152 23.8864L40.9497 24.1692L37.486 21.8365L38.617 17.878H39.2532V17.9487ZM38.0515 16.5349C37.6981 16.5349 37.4154 16.747 37.3447 17.0297L36.0016 21.6244L33.8103 22.7554L30.2759 20.4227V17.6659L34.2344 14.9091C34.5172 14.7677 34.6585 14.4143 34.5172 14.1315C35.8602 14.697 37.0619 15.4746 38.0515 16.5349ZM24.4089 5.86109L18.6832 11.5868C16.7039 9.39546 15.5022 6.56797 15.2902 3.5284L15.2195 2.3974C18.6125 2.32671 21.8641 3.59909 24.4089 5.86109ZM2.00092 15.616L3.13192 15.6867C6.10079 15.8987 8.92829 17.1004 11.1903 19.0797L5.46461 24.8053C3.20261 22.2606 1.93023 19.009 2.00092 15.616ZM6.45423 25.795L12.2506 20.0693C14.0885 22.1192 15.2195 24.664 15.5729 27.3501C14.0885 27.5622 12.604 27.9863 11.1903 28.5518C9.42311 27.9863 7.79729 27.0673 6.45423 25.795ZM29.7811 37.8118C26.7415 40.0738 23.0658 41.2755 19.2487 41.2755H17.1987C13.4523 41.2755 9.77654 40.0738 6.73698 37.8118L4.47498 36.1153C4.33361 35.974 4.19223 35.7619 4.19223 35.5498C4.19223 35.3378 4.26292 35.1257 4.40429 34.9843L6.45423 33.1465C7.86798 31.8741 9.56448 30.8138 11.3317 30.0362C11.473 30.0362 11.5437 29.9655 11.6144 29.8948C17.9056 27.2794 25.045 28.5518 30.0639 33.1465L32.0431 34.9843C32.1845 35.1257 32.2552 35.3378 32.2552 35.5498C32.2552 35.7619 32.1138 35.974 31.9724 36.1153L29.7811 37.8118ZM33.5275 36.3981C33.5982 36.186 33.6689 35.9033 33.7396 35.6912C33.7396 35.2671 33.6689 34.843 33.4569 34.4895L35.012 31.3793H39.1119L39.4653 32.0155C37.9102 33.9947 35.8602 35.5498 33.5275 36.3981Z" fill="#388C1A"/>
<path d="M42.929 24.0985C42.4342 17.1004 36.6378 11.6575 29.6397 11.5868C27.307 3.74046 19.0366 -0.712847 11.1903 1.61984C3.34398 3.95253 -1.10933 12.223 1.22336 20.0693C2.42504 24.2398 5.4646 27.6328 9.35242 29.4C7.93867 30.1776 6.66629 31.0258 5.53529 32.0862L3.48536 33.924C2.63711 34.7016 2.56642 36.0447 3.34398 36.8929C3.41467 37.0343 3.55604 37.105 3.62673 37.2463L5.88873 38.9428C9.14036 41.3462 13.0989 42.6893 17.1987 42.6893H19.2487C23.3485 42.6893 27.307 41.3462 30.5587 38.9428L31.3362 38.3773C38.0515 37.3877 42.9997 31.7327 42.9997 25.0174C42.9997 24.8053 42.9997 24.664 42.9997 24.4519C42.9997 24.3105 42.9997 24.2398 42.929 24.0985ZM40.1015 30.3897C40.0308 30.1069 39.748 29.9655 39.4653 29.9655H34.7999L33.1741 28.3397L34.4465 23.9571L36.5671 22.9675L40.4549 25.5829C40.5963 25.6536 40.7377 25.7243 40.879 25.7243C41.0204 25.7243 41.0911 25.7243 41.2325 25.6536L41.5859 25.4415C41.5152 27.2087 41.0911 28.9759 40.2429 30.531L40.1015 30.3897ZM32.3965 33.3585L30.9828 32.0862C29.7811 30.9552 28.3674 30.0362 26.8829 29.2587H32.0431L33.5982 30.8138L32.3965 33.3585ZM5.46461 6.85071L14.4419 15.828L12.1799 18.09C9.70585 15.828 6.59561 14.485 3.27329 14.2729L2.14229 14.2022C2.49573 11.4454 3.62673 8.90065 5.46461 6.85071ZM13.8764 3.66978C14.0885 6.99209 15.4315 10.1023 17.6935 12.5764L15.4315 14.8384L6.45423 5.86109C8.50417 4.02322 11.0489 2.89222 13.735 2.53878L13.8764 3.66978ZM25.3985 6.85071C26.6709 8.26446 27.5898 9.89028 28.1553 11.6575C25.8226 11.8695 23.6313 12.7178 21.7227 14.1315C20.9452 13.7074 20.2383 13.1419 19.6021 12.5764L25.3985 6.85071ZM32.8207 13.4247L33.0327 13.9902L29.569 16.3935L26.176 13.9902L26.3881 13.4247C28.438 12.8592 30.7 12.8592 32.8207 13.4247ZM32.8914 23.8864L32.962 24.0278L31.9017 27.8449H27.307L26.176 23.8864L29.569 21.6244L32.8914 23.8864ZM25.2571 22.8261L22.3589 21.6951L21.0865 18.4435C21.0159 18.3021 20.8745 18.1607 20.7331 18.09L20.0969 17.7366C21.2986 16.1815 22.8537 14.9091 24.6916 14.1315C24.6209 14.4143 24.6916 14.7677 24.9744 14.9091L28.9329 17.6659V20.4227L25.2571 22.8261ZM19.2487 18.8676L19.8142 19.1503L20.9452 21.9778L18.1177 24.8053L17.5522 24.5933C17.6229 22.614 18.1884 20.6348 19.2487 18.8676ZM20.5917 15.0505C19.8142 15.7573 19.1073 16.5349 18.5418 17.3832C18.4711 17.4538 18.4004 17.5245 18.4004 17.5952V17.6659L16.4212 15.828L18.6832 13.566C19.2487 14.1315 19.9555 14.6263 20.5917 15.0505ZM15.4315 16.8177L17.5522 18.9383C16.7746 20.4934 16.2798 22.2606 16.1384 24.0278C15.5022 22.1899 14.4419 20.4934 13.1695 19.009L15.4315 16.8177ZM17.7642 27.138C17.6935 26.7846 17.6935 26.5018 17.6229 26.1484L17.9763 26.2898C18.047 26.4312 18.1884 26.4312 18.259 26.4312C18.4711 26.4312 18.6125 26.3605 18.7539 26.2191L21.9348 23.0382L24.6916 24.1692L25.964 28.7638C25.964 28.8345 25.964 28.8345 26.0347 28.9052C23.6313 27.7035 20.9452 27.138 18.259 27.138H17.7642ZM39.2532 17.9487C40.5256 19.7158 41.3032 21.7658 41.5152 23.8864L40.9497 24.1692L37.486 21.8365L38.617 17.878H39.2532V17.9487ZM38.0515 16.5349C37.6981 16.5349 37.4154 16.747 37.3447 17.0297L36.0016 21.6244L33.8103 22.7554L30.2759 20.4227V17.6659L34.2344 14.9091C34.5172 14.7677 34.6585 14.4143 34.5172 14.1315C35.8602 14.697 37.0619 15.4746 38.0515 16.5349ZM24.4089 5.86109L18.6832 11.5868C16.7039 9.39546 15.5022 6.56797 15.2902 3.5284L15.2195 2.3974C18.6125 2.32671 21.8641 3.59909 24.4089 5.86109ZM2.00092 15.616L3.13192 15.6867C6.10079 15.8987 8.92829 17.1004 11.1903 19.0797L5.46461 24.8053C3.20261 22.2606 1.93023 19.009 2.00092 15.616ZM6.45423 25.795L12.2506 20.0693C14.0885 22.1192 15.2195 24.664 15.5729 27.3501C14.0885 27.5622 12.604 27.9863 11.1903 28.5518C9.42311 27.9863 7.79729 27.0673 6.45423 25.795ZM29.7811 37.8118C26.7415 40.0738 23.0658 41.2755 19.2487 41.2755H17.1987C13.4523 41.2755 9.77654 40.0738 6.73698 37.8118L4.47498 36.1153C4.33361 35.974 4.19223 35.7619 4.19223 35.5498C4.19223 35.3378 4.26292 35.1257 4.40429 34.9843L6.45423 33.1465C7.86798 31.8741 9.56448 30.8138 11.3317 30.0362C11.473 30.0362 11.5437 29.9655 11.6144 29.8948C17.9056 27.2794 25.045 28.5518 30.0639 33.1465L32.0431 34.9843C32.1845 35.1257 32.2552 35.3378 32.2552 35.5498C32.2552 35.7619 32.1138 35.974 31.9724 36.1153L29.7811 37.8118ZM33.5275 36.3981C33.5982 36.186 33.6689 35.9033 33.7396 35.6912C33.7396 35.2671 33.6689 34.843 33.4569 34.4895L35.012 31.3793H39.1119L39.4653 32.0155C37.9102 33.9947 35.8602 35.5498 33.5275 36.3981Z" stroke="#60D437" stroke-width="0.6" mask="url(#path-1-outside-1)"/>
</svg>
