<svg width="89" height="26" viewBox="0 0 89 26" fill="none" xmlns="http://www.w3.org/2000/svg">
<path d="M7.44985 22.6487V9.80075V7.94824L1.77283 11.5736V22.6687C1.77283 23.6447 0.97605 24.4415 0 24.4415V25.4972H9.22268V24.4415C8.24663 24.4216 7.44985 23.6248 7.44985 22.6487Z" fill="white"/>
<path d="M36.4127 22.6483V1.8525V0L30.7357 3.60541V22.6483C30.7357 23.6244 29.9389 24.4212 28.9629 24.4212V25.4769H38.1856V24.4212C37.2095 24.4212 36.4127 23.6244 36.4127 22.6483Z" fill="white"/>
<path d="M22.2309 8.20679C19.9999 8.20679 18.4064 9.00356 17.4303 10.5772V1.8525V0L11.7533 3.60541V22.6483C11.7533 23.6244 10.9565 24.4212 9.98047 24.4212V25.4769H16.6933H17.4104H20.3585C22.5695 25.4769 24.3423 24.7598 25.6969 23.3057C27.0514 21.8715 27.7087 19.4612 27.7087 16.1347C27.7087 13.5452 27.2107 11.5732 26.1949 10.2386C25.1989 8.88405 23.8842 8.20679 22.2309 8.20679ZM18.9243 24.8395C18.6255 24.8395 18.3068 24.7996 18.008 24.7C17.6694 24.6004 17.4502 24.2618 17.4502 23.9033V12.3102V12.1309C17.4502 11.4736 17.6694 10.9357 18.1275 10.4975C18.5856 10.0593 19.1035 9.8601 19.721 9.8601C20.3784 9.8601 20.8963 10.378 21.2748 11.4138C21.3943 11.7126 21.474 12.0911 21.5536 12.5293C21.7329 13.585 21.8325 15.0192 21.8325 16.8518C21.8325 22.1902 20.8565 24.8395 18.9243 24.8395Z" fill="white"/>
<path d="M89.0001 7.94772H87.6456L83.5621 19.8396L80.1758 9.7803L79.5583 7.94772L78.662 5.31836L74.4988 7.94772L72.7061 9.08312V9.7803C73.7618 9.7803 74.698 10.4576 75.0366 11.4535L79.7575 25.4569H82.108H82.1678H82.3869H82.9845H83.0044L84.2195 21.8514L84.1995 21.8116L89.0001 7.94772Z" fill="white"/>
<path d="M4.58109 5.63719C6.13481 5.63719 7.38973 4.38227 7.38973 2.82855C7.38973 1.27484 6.13481 0 4.58109 0C3.02738 0 1.77246 1.25492 1.77246 2.80863C1.77246 4.36235 3.02738 5.63719 4.58109 5.63719Z" fill="white"/>
<path d="M64.7185 8.28613C61.4916 8.28613 58.7228 10.2582 57.5475 13.0469H54.3604C53.1852 10.2382 50.4164 8.28613 47.1895 8.28613C42.9068 8.28613 39.4209 11.772 39.4209 16.0547C39.4209 20.3374 42.9068 23.8233 47.1895 23.8233C50.3566 23.8233 53.0657 21.9309 54.2808 19.2219L48.4245 16.9112H62.5672H63.5632L57.6272 19.2418C58.8423 21.9309 61.5513 23.8233 64.7185 23.8233C69.0012 23.8233 72.4871 20.3374 72.4871 16.0547C72.4871 11.7521 69.0012 8.28613 64.7185 8.28613Z" fill="white"/>
</svg>
