<svg width="145" height="142" viewBox="0 0 145 142" fill="none" xmlns="http://www.w3.org/2000/svg">
<ellipse cx="72.3167" cy="70.7433" rx="71.7667" ry="70.5314" fill="#6514E8"/>
<ellipse cx="72.3167" cy="70.7433" rx="71.7667" ry="70.5314" fill="url(#paint0_linear)" style="mix-blend-mode:lighten"/>
<path d="M138.071 70.7602C138.071 106.338 108.718 135.224 72.4528 135.224C36.188 135.224 6.83423 106.338 6.83423 70.7602C6.83423 35.1825 36.188 6.29688 72.4528 6.29688C108.718 6.29688 138.071 35.1825 138.071 70.7602Z" fill="#6514E8"/>
<path d="M138.071 70.7602C138.071 106.338 108.718 135.224 72.4528 135.224C36.188 135.224 6.83423 106.338 6.83423 70.7602C6.83423 35.1825 36.188 6.29688 72.4528 6.29688C108.718 6.29688 138.071 35.1825 138.071 70.7602Z" fill="url(#paint1_linear)" style="mix-blend-mode:lighten"/>
<path d="M138.071 70.7602C138.071 106.338 108.718 135.224 72.4528 135.224C36.188 135.224 6.83423 106.338 6.83423 70.7602C6.83423 35.1825 36.188 6.29688 72.4528 6.29688C108.718 6.29688 138.071 35.1825 138.071 70.7602Z" stroke="white" stroke-width="3"/>
<ellipse rx="4.51142" ry="18.0329" transform="matrix(0.727329 -0.686289 0.698802 0.715316 107.582 31.1381)" fill="white" fill-opacity="0.37"/>
<path d="M44.7853 77.8574C47.8966 77.8574 50.0675 76.0645 50.3663 73.2344H47.7823C47.5011 74.7373 46.3673 75.6602 44.7941 75.6602C42.7638 75.6602 41.4894 73.9902 41.4894 71.2832C41.4894 68.6113 42.7814 66.9326 44.7853 66.9326C46.3321 66.9326 47.5275 67.9521 47.7736 69.5078H50.3575C50.1554 66.6689 47.8351 64.7354 44.7853 64.7354C41.1114 64.7354 38.7823 67.2051 38.7823 71.292C38.7823 75.3877 41.0939 77.8574 44.7853 77.8574ZM56.4644 77.8398C59.312 77.8398 61.1314 76.0205 61.1314 72.918C61.1314 69.8594 59.2857 68.0137 56.4644 68.0137C53.6431 68.0137 51.7974 69.8682 51.7974 72.918C51.7974 76.0117 53.6167 77.8398 56.4644 77.8398ZM56.4644 75.8799C55.1987 75.8799 54.3989 74.8164 54.3989 72.9268C54.3989 71.0547 55.2163 69.9736 56.4644 69.9736C57.7124 69.9736 58.521 71.0547 58.521 72.9268C58.521 74.8164 57.7212 75.8799 56.4644 75.8799ZM62.8085 77.6377H65.3749V72.2324C65.3749 71.0107 66.1044 70.167 67.2558 70.167C68.4071 70.167 68.9872 70.8701 68.9872 72.1006V77.6377H71.5536V71.5645C71.5536 69.3584 70.3759 68.04 68.2841 68.04C66.8339 68.04 65.8407 68.7256 65.3398 69.8945H65.287V68.2158H62.8085V77.6377ZM82.0902 71.7227C81.9759 69.5869 80.3587 68.0137 77.8099 68.0137C74.9886 68.0137 73.1868 69.8945 73.1868 72.918C73.1868 75.9941 74.9886 77.8398 77.8275 77.8398C80.306 77.8398 81.9671 76.4072 82.0989 74.1836H79.7083C79.5501 75.2119 78.8821 75.8271 77.8538 75.8271C76.5794 75.8271 75.7884 74.7725 75.7884 72.918C75.7884 71.0986 76.5794 70.0264 77.845 70.0264C78.8997 70.0264 79.5589 70.7295 79.7083 71.7227H82.0902ZM87.9157 69.9121C89.0583 69.9121 89.8405 70.7383 89.8933 71.9424H85.8943C85.9821 70.7646 86.7907 69.9121 87.9157 69.9121ZM89.9284 74.7549C89.6911 75.4756 88.9704 75.9414 88.03 75.9414C86.7204 75.9414 85.8679 75.0186 85.8679 73.6738V73.5156H92.363V72.7334C92.363 69.8682 90.6316 68.0137 87.8894 68.0137C85.1032 68.0137 83.3454 69.9648 83.3454 72.9707C83.3454 75.9854 85.0857 77.8398 87.9861 77.8398C90.3152 77.8398 92.0027 76.6006 92.2839 74.7549H89.9284ZM94.0402 77.6377H96.6066V72.373C96.6066 71.0459 97.3448 70.2725 98.6105 70.2725C98.9796 70.2725 99.3312 70.334 99.5421 70.4219V68.1631C99.3663 68.1104 99.1114 68.0664 98.8126 68.0664C97.7052 68.0664 96.9054 68.7168 96.5714 69.9121H96.5187V68.2158H94.0402V77.6377ZM101.632 66.0449V68.2158H100.305V70.1494H101.632V75.0977C101.632 76.9346 102.494 77.6729 104.709 77.6729C105.227 77.6729 105.667 77.6289 105.93 77.5674V75.6777C105.772 75.7041 105.535 75.7217 105.306 75.7217C104.55 75.7217 104.199 75.3789 104.199 74.6582V70.1494H105.939V68.2158H104.199V66.0449H101.632Z" fill="white"/>
<defs>
<linearGradient id="paint0_linear" x1="72.3167" y1="0.211914" x2="72.3167" y2="141.275" gradientUnits="userSpaceOnUse">
<stop stop-color="#FF003D" stop-opacity="0.49"/>
<stop offset="1" stop-color="white" stop-opacity="0"/>
</linearGradient>
<linearGradient id="paint1_linear" x1="72.4528" y1="4.79687" x2="72.4528" y2="136.724" gradientUnits="userSpaceOnUse">
<stop stop-color="#FF003D" stop-opacity="0.49"/>
<stop offset="1" stop-color="white" stop-opacity="0"/>
</linearGradient>
</defs>
</svg>
