<svg width="218" height="214" viewBox="0 0 218 214" fill="none" xmlns="http://www.w3.org/2000/svg">
<ellipse cx="108.659" cy="107.069" rx="108.559" ry="106.691" fill="#00237B"/>
<ellipse cx="108.659" cy="107.069" rx="108.559" ry="106.691" fill="url(#paint0_linear)" style="mix-blend-mode:lighten"/>
<path d="M208.682 107.037C208.682 161.222 163.977 205.207 108.758 205.207C53.5382 205.207 8.8335 161.222 8.8335 107.037C8.8335 52.8519 53.5382 8.86719 108.758 8.86719C163.977 8.86719 208.682 52.8519 208.682 107.037Z" fill="#00237B"/>
<path d="M208.682 107.037C208.682 161.222 163.977 205.207 108.758 205.207C53.5382 205.207 8.8335 161.222 8.8335 107.037C8.8335 52.8519 53.5382 8.86719 108.758 8.86719C163.977 8.86719 208.682 52.8519 208.682 107.037Z" fill="url(#paint1_linear)" style="mix-blend-mode:lighten"/>
<path d="M208.682 107.037C208.682 161.222 163.977 205.207 108.758 205.207C53.5382 205.207 8.8335 161.222 8.8335 107.037C8.8335 52.8519 53.5382 8.86719 108.758 8.86719C163.977 8.86719 208.682 52.8519 208.682 107.037Z" stroke="white" stroke-width="4"/>
<ellipse rx="6.8243" ry="27.2779" transform="matrix(0.727329 -0.686289 0.698802 0.715316 162.003 47.158)" fill="white" fill-opacity="0.37"/>
<path d="M87.7939 101.041V113.724H90.4482V109.725H92.8213C95.4932 109.725 97.3477 107.984 97.3477 105.383C97.3477 102.772 95.5547 101.041 92.9531 101.041H87.7939ZM90.4482 103.142H92.25C93.7705 103.142 94.6494 103.95 94.6494 105.392C94.6494 106.842 93.7617 107.65 92.2412 107.65H90.4482V103.142ZM102.075 112.019C101.204 112.019 100.624 111.579 100.624 110.876C100.624 110.208 101.169 109.777 102.127 109.707L104.114 109.584V110.27C104.114 111.289 103.191 112.019 102.075 112.019ZM101.231 113.873C102.409 113.873 103.578 113.284 104.105 112.282H104.158V113.724H106.636V107.246C106.636 105.348 105.063 104.1 102.646 104.1C100.15 104.1 98.5941 105.356 98.4975 107.185H100.844C100.967 106.49 101.574 106.016 102.532 106.016C103.498 106.016 104.114 106.525 104.114 107.404V108.028L101.741 108.169C99.394 108.31 98.0756 109.303 98.0756 111.017C98.0756 112.713 99.4379 113.873 101.231 113.873ZM108.647 113.724H111.214V108.459C111.214 107.132 111.952 106.358 113.218 106.358C113.587 106.358 113.938 106.42 114.149 106.508V104.249C113.973 104.196 113.719 104.152 113.42 104.152C112.312 104.152 111.513 104.803 111.179 105.998H111.126V104.302H108.647V113.724ZM116.239 102.131V104.302H114.912V106.235H116.239V111.184C116.239 113.021 117.101 113.759 119.316 113.759C119.834 113.759 120.274 113.715 120.537 113.653V111.764C120.379 111.79 120.142 111.808 119.913 111.808C119.157 111.808 118.806 111.465 118.806 110.744V106.235H120.546V104.302H118.806V102.131H116.239ZM123.506 117.213C125.915 117.213 127.092 116.352 127.901 113.935L131.144 104.302H128.437L126.433 111.667H126.389L124.385 104.302H121.564L124.842 113.732C124.86 113.768 124.763 114.146 124.763 114.181C124.588 114.928 124.122 115.227 123.181 115.227C123.085 115.227 122.619 115.227 122.54 115.209V117.187C122.619 117.204 123.419 117.213 123.506 117.213Z" fill="white"/>
<defs>
<linearGradient id="paint0_linear" x1="108.659" y1="0.37793" x2="108.659" y2="213.76" gradientUnits="userSpaceOnUse">
<stop stop-color="#0066FF" stop-opacity="0.49"/>
<stop offset="1" stop-color="white" stop-opacity="0"/>
</linearGradient>
<linearGradient id="paint1_linear" x1="108.758" y1="6.86719" x2="108.758" y2="207.207" gradientUnits="userSpaceOnUse">
<stop stop-color="#0066FF" stop-opacity="0.49"/>
<stop offset="1" stop-color="white" stop-opacity="0"/>
</linearGradient>
</defs>
</svg>
