<svg width="157" height="155" viewBox="0 0 157 155" fill="none" xmlns="http://www.w3.org/2000/svg">
<ellipse cx="78.4764" cy="77.8702" rx="78.4649" ry="77.1144" fill="#C0C0C0"/>
<ellipse cx="78.4764" cy="77.8702" rx="78.4649" ry="77.1144" fill="url(#paint0_linear)" style="mix-blend-mode:lighten"/>
<path d="M150.184 77.847C150.184 38.7139 117.897 6.94595 78.0147 6.94595C38.1322 6.94595 5.8457 38.7139 5.8457 77.847C5.8457 116.98 38.1322 148.748 78.0147 148.748C117.897 148.748 150.184 116.98 150.184 77.847Z" fill="#B0B0B0"/>
<path d="M150.184 77.847C150.184 38.7139 117.897 6.94595 78.0147 6.94595C38.1322 6.94595 5.8457 38.7139 5.8457 77.847C5.8457 116.98 38.1322 148.748 78.0147 148.748C117.897 148.748 150.184 116.98 150.184 77.847Z" fill="url(#paint1_linear)" style="mix-blend-mode:lighten"/>
<path d="M150.184 77.847C150.184 38.7139 117.897 6.94595 78.0147 6.94595C38.1322 6.94595 5.8457 38.7139 5.8457 77.847C5.8457 116.98 38.1322 148.748 78.0147 148.748C117.897 148.748 150.184 116.98 150.184 77.847Z" stroke="white" stroke-width="3"/>
<path opacity="0.6" d="M45.4102 82.9404H39.6621V79.7412H45.085V77.7021H39.6621V74.6436H45.4102V72.4551H37.0078V85.1377H45.4102V82.9404ZM50.9545 85.2871C52.3432 85.2871 53.433 84.5576 53.8901 83.5205H53.934V85.1377H56.4653V72.4551H53.8989V77.333H53.8461C53.3891 76.2871 52.3344 75.5664 50.9721 75.5664C48.6078 75.5664 47.1137 77.4209 47.1137 80.4092C47.1137 83.4238 48.5991 85.2871 50.9545 85.2871ZM51.8246 77.623C53.0991 77.623 53.9164 78.7129 53.9164 80.4268C53.9164 82.1494 53.0991 83.2217 51.8246 83.2217C50.5327 83.2217 49.7416 82.1582 49.7416 80.4268C49.7416 78.7041 50.5327 77.623 51.8246 77.623ZM67.2303 75.7158H64.6639V81.1123C64.6639 82.3604 63.952 83.1777 62.8094 83.1777C61.6756 83.1777 61.0516 82.5098 61.0516 81.2529V75.7158H58.4852V81.7891C58.4852 83.9863 59.8387 85.3135 61.8778 85.3135C63.3016 85.3135 64.2332 84.6279 64.6991 83.4414H64.7518V85.1377H67.2303V75.7158ZM77.8108 79.2227C77.6965 77.0869 76.0793 75.5137 73.5305 75.5137C70.7092 75.5137 68.9075 77.3945 68.9075 80.418C68.9075 83.4941 70.7092 85.3398 73.5481 85.3398C76.0266 85.3398 77.6877 83.9072 77.8196 81.6836H75.4289C75.2707 82.7119 74.6028 83.3271 73.5744 83.3271C72.3 83.3271 71.509 82.2725 71.509 80.418C71.509 78.5986 72.3 77.5264 73.5657 77.5264C74.6203 77.5264 75.2795 78.2295 75.4289 79.2227H77.8108ZM83.0475 83.4326C82.1774 83.4326 81.5973 82.9932 81.5973 82.29C81.5973 81.6221 82.1422 81.1914 83.1002 81.1211L85.0866 80.998V81.6836C85.0866 82.7031 84.1637 83.4326 83.0475 83.4326ZM82.2037 85.2871C83.3815 85.2871 84.5504 84.6982 85.0778 83.6963H85.1305V85.1377H87.609V78.6602C87.609 76.7617 86.0358 75.5137 83.6188 75.5137C81.1227 75.5137 79.567 76.7705 79.4703 78.5986H81.817C81.9401 77.9043 82.5465 77.4297 83.5045 77.4297C84.4713 77.4297 85.0866 77.9395 85.0866 78.8184V79.4424L82.7135 79.583C80.3668 79.7236 79.0485 80.7168 79.0485 82.4307C79.0485 84.127 80.4108 85.2871 82.2037 85.2871ZM90.3057 73.5449V75.7158H88.9785V77.6494H90.3057V82.5977C90.3057 84.4346 91.167 85.1729 93.3819 85.1729C93.9004 85.1729 94.3399 85.1289 94.6035 85.0674V83.1777C94.4453 83.2041 94.208 83.2217 93.9795 83.2217C93.2237 83.2217 92.8721 82.8789 92.8721 82.1582V77.6494H94.6123V75.7158H92.8721V73.5449H90.3057ZM96.4125 85.1377H98.9789V75.7158H96.4125V85.1377ZM97.6957 74.6787C98.4692 74.6787 99.0668 74.0898 99.0668 73.3516C99.0668 72.6045 98.4692 72.0244 97.6957 72.0244C96.9223 72.0244 96.3246 72.6045 96.3246 73.3516C96.3246 74.0898 96.9223 74.6787 97.6957 74.6787ZM105.367 85.3398C108.215 85.3398 110.034 83.5205 110.034 80.418C110.034 77.3594 108.188 75.5137 105.367 75.5137C102.546 75.5137 100.7 77.3682 100.7 80.418C100.7 83.5117 102.519 85.3398 105.367 85.3398ZM105.367 83.3799C104.101 83.3799 103.302 82.3164 103.302 80.4268C103.302 78.5547 104.119 77.4736 105.367 77.4736C106.615 77.4736 107.424 78.5547 107.424 80.4268C107.424 82.3164 106.624 83.3799 105.367 83.3799ZM111.711 85.1377H114.278V79.7324C114.278 78.5107 115.007 77.667 116.158 77.667C117.31 77.667 117.89 78.3701 117.89 79.6006V85.1377H120.456V79.0645C120.456 76.8584 119.279 75.54 117.187 75.54C115.737 75.54 114.743 76.2256 114.242 77.3945H114.19V75.7158H111.711V85.1377Z" fill="#464646"/>
<defs>
<linearGradient id="paint0_linear" x1="78.4764" y1="0.755859" x2="78.4764" y2="154.985" gradientUnits="userSpaceOnUse">
<stop stop-color="#B0B0B0" stop-opacity="0.49"/>
<stop offset="1" stop-color="white" stop-opacity="0"/>
</linearGradient>
<linearGradient id="paint1_linear" x1="78.0147" y1="150.248" x2="78.0147" y2="5.44595" gradientUnits="userSpaceOnUse">
<stop stop-color="white"/>
<stop offset="1" stop-color="#C2C2C4"/>
</linearGradient>
</defs>
</svg>
