<svg width="170" height="167" viewBox="0 0 170 167" fill="none" xmlns="http://www.w3.org/2000/svg">
<ellipse cx="85.0876" cy="83.3076" rx="84.2062" ry="82.7569" fill="#D91366"/>
<ellipse cx="85.0876" cy="83.3076" rx="84.2062" ry="82.7569" fill="url(#paint0_linear)" style="mix-blend-mode:lighten"/>
<path d="M162.5 83.3267C162.5 125.219 127.938 159.224 85.2476 159.224C42.5576 159.224 7.99512 125.219 7.99512 83.3267C7.99512 41.4344 42.5576 7.42969 85.2476 7.42969C127.938 7.42969 162.5 41.4344 162.5 83.3267Z" fill="#D91366"/>
<path d="M162.5 83.3267C162.5 125.219 127.938 159.224 85.2476 159.224C42.5576 159.224 7.99512 125.219 7.99512 83.3267C7.99512 41.4344 42.5576 7.42969 85.2476 7.42969C127.938 7.42969 162.5 41.4344 162.5 83.3267Z" fill="url(#paint1_linear)" style="mix-blend-mode:lighten"/>
<path d="M162.5 83.3267C162.5 125.219 127.938 159.224 85.2476 159.224C42.5576 159.224 7.99512 125.219 7.99512 83.3267C7.99512 41.4344 42.5576 7.42969 85.2476 7.42969C127.938 7.42969 162.5 41.4344 162.5 83.3267Z" stroke="white" stroke-width="3"/>
<ellipse rx="5.2934" ry="21.1586" transform="matrix(0.727329 -0.686289 0.698802 0.715316 126.465 36.8373)" fill="white" fill-opacity="0.37"/>
<path d="M54.6566 79.2822H56.9154C58.2337 79.2822 59.0599 80.0732 59.0599 81.3037C59.0599 82.5605 58.2777 83.3252 56.9417 83.3252H54.6566V79.2822ZM54.6566 85.25H56.7835L59.1478 89.8906H62.1536L59.4818 84.8545C60.9408 84.2832 61.7845 82.877 61.7845 81.251C61.7845 78.7461 60.1146 77.208 57.1966 77.208H52.0023V89.8906H54.6566V85.25ZM67.8035 82.165C68.946 82.165 69.7283 82.9912 69.781 84.1953H65.782C65.8699 83.0176 66.6785 82.165 67.8035 82.165ZM69.8161 87.0078C69.5788 87.7285 68.8581 88.1943 67.9177 88.1943C66.6081 88.1943 65.7556 87.2715 65.7556 85.9268V85.7686H72.2507V84.9863C72.2507 82.1211 70.5193 80.2666 67.7771 80.2666C64.991 80.2666 63.2331 82.2178 63.2331 85.2236C63.2331 88.2383 64.9734 90.0928 67.8738 90.0928C70.2029 90.0928 71.8904 88.8535 72.1716 87.0078H69.8161ZM73.9894 89.8906H76.5558V77.208H73.9894V89.8906ZM78.6812 89.8906H81.2476V80.4688H78.6812V89.8906ZM79.9644 79.4316C80.7378 79.4316 81.3355 78.8428 81.3355 78.1045C81.3355 77.3574 80.7378 76.7773 79.9644 76.7773C79.1909 76.7773 78.5933 77.3574 78.5933 78.1045C78.5933 78.8428 79.1909 79.4316 79.9644 79.4316ZM87.662 87.8867C86.3876 87.8867 85.5966 86.8848 85.5966 85.1621C85.5966 83.4482 86.3964 82.376 87.662 82.376C88.9452 82.376 89.7626 83.4658 89.7626 85.1621C89.7626 86.8672 88.9452 87.8867 87.662 87.8867ZM87.6181 93.4414C90.4394 93.4414 92.3202 92.0088 92.3202 89.7588V80.4688H89.789V82.1123H89.745C89.2529 81.0312 88.1894 80.3193 86.8359 80.3193C84.4452 80.3193 82.9687 82.1562 82.9687 85.1445C82.9687 88.0889 84.4892 89.8643 86.7919 89.8643C88.1542 89.8643 89.2617 89.1787 89.7011 88.1768H89.7538V89.8291C89.7538 90.9189 89.0156 91.6572 87.6884 91.6572C86.7128 91.6572 85.9745 91.209 85.7724 90.5586H83.2587C83.4609 92.2373 85.1396 93.4414 87.6181 93.4414ZM94.3929 89.8906H96.9593V80.4688H94.3929V89.8906ZM95.6761 79.4316C96.4495 79.4316 97.0472 78.8428 97.0472 78.1045C97.0472 77.3574 96.4495 76.7773 95.6761 76.7773C94.9027 76.7773 94.305 77.3574 94.305 78.1045C94.305 78.8428 94.9027 79.4316 95.6761 79.4316ZM103.347 90.0928C106.195 90.0928 108.014 88.2734 108.014 85.1709C108.014 82.1123 106.169 80.2666 103.347 80.2666C100.526 80.2666 98.6804 82.1211 98.6804 85.1709C98.6804 88.2646 100.5 90.0928 103.347 90.0928ZM103.347 88.1328C102.082 88.1328 101.282 87.0693 101.282 85.1797C101.282 83.3076 102.099 82.2266 103.347 82.2266C104.595 82.2266 105.404 83.3076 105.404 85.1797C105.404 87.0693 104.604 88.1328 103.347 88.1328ZM109.692 89.8906H112.258V84.4854C112.258 83.2637 112.987 82.4199 114.139 82.4199C115.29 82.4199 115.87 83.123 115.87 84.3535V89.8906H118.437V83.8174C118.437 81.6113 117.259 80.293 115.167 80.293C113.717 80.293 112.724 80.9785 112.223 82.1475H112.17V80.4688H109.692V89.8906Z" fill="white"/>
<defs>
<linearGradient id="paint0_linear" x1="85.0876" y1="0.550781" x2="85.0876" y2="166.065" gradientUnits="userSpaceOnUse">
<stop stop-color="#FF003D" stop-opacity="0.49"/>
<stop offset="1" stop-color="white" stop-opacity="0"/>
</linearGradient>
<linearGradient id="paint1_linear" x1="85.2476" y1="5.92969" x2="85.2476" y2="160.724" gradientUnits="userSpaceOnUse">
<stop stop-color="#FF003D" stop-opacity="0.49"/>
<stop offset="1" stop-color="white" stop-opacity="0"/>
</linearGradient>
</defs>
</svg>
