<svg width="131" height="129" viewBox="0 0 131 129" fill="none" xmlns="http://www.w3.org/2000/svg">
<ellipse cx="65.1434" cy="64.679" rx="65.0685" ry="63.9485" fill="#C0C0C0"/>
<ellipse cx="65.1434" cy="64.679" rx="65.0685" ry="63.9485" fill="url(#paint0_linear)" style="mix-blend-mode:lighten"/>
<path d="M124.492 64.6583C124.492 32.3521 97.837 6.11845 64.901 6.11845C31.9649 6.11845 5.30957 32.3521 5.30957 64.6583C5.30957 96.9646 31.9649 123.198 64.901 123.198C97.837 123.198 124.492 96.9646 124.492 64.6583Z" fill="#B0B0B0"/>
<path d="M124.492 64.6583C124.492 32.3521 97.837 6.11845 64.901 6.11845C31.9649 6.11845 5.30957 32.3521 5.30957 64.6583C5.30957 96.9646 31.9649 123.198 64.901 123.198C97.837 123.198 124.492 96.9646 124.492 64.6583Z" fill="url(#paint1_linear)" style="mix-blend-mode:lighten"/>
<path d="M124.492 64.6583C124.492 32.3521 97.837 6.11845 64.901 6.11845C31.9649 6.11845 5.30957 32.3521 5.30957 64.6583C5.30957 96.9646 31.9649 123.198 64.901 123.198C97.837 123.198 124.492 96.9646 124.492 64.6583Z" stroke="white" stroke-width="3"/>
<path opacity="0.6" d="M49.0176 71.5459V58.8633H46.3633V64.0137H40.6504V58.8633H37.9961V71.5459H40.6504V66.2021H46.3633V71.5459H49.0176ZM55.4848 63.8203C56.6274 63.8203 57.4096 64.6465 57.4623 65.8506H53.4633C53.5512 64.6729 54.3598 63.8203 55.4848 63.8203ZM57.4975 68.6631C57.2602 69.3838 56.5395 69.8496 55.5991 69.8496C54.2895 69.8496 53.437 68.9268 53.437 67.582V67.4238H59.9321V66.6416C59.9321 63.7764 58.2006 61.9219 55.4584 61.9219C52.6723 61.9219 50.9145 63.873 50.9145 66.8789C50.9145 69.8936 52.6547 71.748 55.5551 71.748C57.8842 71.748 59.5717 70.5088 59.853 68.6631H57.4975ZM65.2479 69.8408C64.3778 69.8408 63.7977 69.4014 63.7977 68.6982C63.7977 68.0303 64.3426 67.5996 65.3006 67.5293L67.287 67.4062V68.0918C67.287 69.1113 66.3641 69.8408 65.2479 69.8408ZM64.4041 71.6953C65.5819 71.6953 66.7508 71.1064 67.2782 70.1045H67.3309V71.5459H69.8094V65.0684C69.8094 63.1699 68.2362 61.9219 65.8192 61.9219C63.3231 61.9219 61.7674 63.1787 61.6707 65.0068H64.0174C64.1405 64.3125 64.7469 63.8379 65.7049 63.8379C66.6717 63.8379 67.287 64.3477 67.287 65.2266V65.8506L64.9139 65.9912C62.5672 66.1318 61.2489 67.125 61.2489 68.8389C61.2489 70.5352 62.6112 71.6953 64.4041 71.6953ZM71.8821 71.5459H74.4485V58.8633H71.8821V71.5459ZM77.2155 59.9531V62.124H75.8883V64.0576H77.2155V69.0059C77.2155 70.8428 78.0768 71.5811 80.2916 71.5811C80.8102 71.5811 81.2496 71.5371 81.5133 71.4756V69.5859C81.3551 69.6123 81.1178 69.6299 80.8893 69.6299C80.1334 69.6299 79.7819 69.2871 79.7819 68.5664V64.0576H81.5221V62.124H79.7819V59.9531H77.2155ZM83.3399 71.5459H85.9063V66.167C85.9063 64.9277 86.6182 64.0752 87.8311 64.0752C89 64.0752 89.5977 64.8135 89.5977 66.0264V71.5459H92.1641V65.4814C92.1641 63.3018 90.9688 61.9482 88.877 61.9482C87.4444 61.9482 86.4161 62.6162 85.9151 63.8027H85.8623V58.8633H83.3399V71.5459Z" fill="#464646"/>
<defs>
<linearGradient id="paint0_linear" x1="65.1434" y1="0.730469" x2="65.1434" y2="128.627" gradientUnits="userSpaceOnUse">
<stop stop-color="#B0B0B0" stop-opacity="0.49"/>
<stop offset="1" stop-color="white" stop-opacity="0"/>
</linearGradient>
<linearGradient id="paint1_linear" x1="64.901" y1="124.698" x2="64.901" y2="4.61846" gradientUnits="userSpaceOnUse">
<stop stop-color="white"/>
<stop offset="1" stop-color="#C2C2C4"/>
</linearGradient>
</defs>
</svg>
