<svg width="117" height="115" viewBox="0 0 117 115" fill="none" xmlns="http://www.w3.org/2000/svg">
<ellipse cx="58.4972" cy="57.2699" rx="57.932" ry="56.9349" fill="#6514E8"/>
<ellipse cx="58.4972" cy="57.2699" rx="57.932" ry="56.9349" fill="url(#paint0_linear)" style="mix-blend-mode:lighten"/>
<path d="M111.262 57.2521C111.262 28.5826 87.6068 5.29709 58.3711 5.29709C29.1355 5.29709 5.47998 28.5826 5.47998 57.2521C5.47998 85.9216 29.1355 109.207 58.3711 109.207C87.6068 109.207 111.262 85.9216 111.262 57.2521Z" fill="#6514E8"/>
<path d="M111.262 57.2521C111.262 28.5826 87.6068 5.29709 58.3711 5.29709C29.1355 5.29709 5.47998 28.5826 5.47998 57.2521C5.47998 85.9216 29.1355 109.207 58.3711 109.207C87.6068 109.207 111.262 85.9216 111.262 57.2521Z" fill="url(#paint1_linear)" style="mix-blend-mode:lighten"/>
<path d="M111.262 57.2521C111.262 28.5826 87.6068 5.29709 58.3711 5.29709C29.1355 5.29709 5.47998 28.5826 5.47998 57.2521C5.47998 85.9216 29.1355 109.207 58.3711 109.207C87.6068 109.207 111.262 85.9216 111.262 57.2521Z" stroke="white" stroke-width="3"/>
<path opacity="0.6" d="M42.2808 63.9639V51.2812H39.2046L35.6011 60.2725H35.5308L31.9273 51.2812H28.8511V63.9639H31.2154V55.4033H31.2857L34.731 63.8408H36.4009L39.8462 55.4033H39.9165V63.9639H42.2808ZM48.8447 64.166C51.6923 64.166 53.5117 62.3467 53.5117 59.2441C53.5117 56.1855 51.666 54.3398 48.8447 54.3398C46.0234 54.3398 44.1777 56.1943 44.1777 59.2441C44.1777 62.3379 45.997 64.166 48.8447 64.166ZM48.8447 62.2061C47.579 62.2061 46.7792 61.1426 46.7792 59.2529C46.7792 57.3809 47.5966 56.2998 48.8447 56.2998C50.0927 56.2998 50.9013 57.3809 50.9013 59.2529C50.9013 61.1426 50.1015 62.2061 48.8447 62.2061ZM63.5736 54.542H60.8929L58.9417 61.6963H58.889L56.929 54.542H54.1781L57.4388 63.9639H60.3392L63.5736 54.542ZM64.864 63.9639H67.4304V54.542H64.864V63.9639ZM66.1472 53.5049C66.9206 53.5049 67.5183 52.916 67.5183 52.1777C67.5183 51.4307 66.9206 50.8506 66.1472 50.8506C65.3738 50.8506 64.7761 51.4307 64.7761 52.1777C64.7761 52.916 65.3738 53.5049 66.1472 53.5049ZM73.7218 56.2383C74.8644 56.2383 75.6466 57.0645 75.6994 58.2686H71.7003C71.7882 57.0908 72.5968 56.2383 73.7218 56.2383ZM75.7345 61.0811C75.4972 61.8018 74.7765 62.2676 73.8361 62.2676C72.5265 62.2676 71.674 61.3447 71.674 60V59.8418H78.1691V59.0596C78.1691 56.1943 76.4376 54.3398 73.6954 54.3398C70.9093 54.3398 69.1515 56.291 69.1515 59.2969C69.1515 62.3115 70.8917 64.166 73.7921 64.166C76.1212 64.166 77.8087 62.9268 78.09 61.0811H75.7345ZM79.688 57.3105C79.688 58.6992 80.6021 59.6309 82.3863 60.0352L84.1265 60.4219C84.9702 60.624 85.2867 60.8877 85.2867 61.3623C85.2867 61.9775 84.6978 62.3643 83.7222 62.3643C82.7027 62.3643 82.0786 61.9072 81.9556 61.1162H79.4507C79.5913 62.9531 81.1382 64.166 83.6519 64.166C86.1392 64.166 87.8443 62.9443 87.8443 61.0898C87.8443 59.6836 87.0796 58.9365 85.19 58.5146L83.3882 58.1279C82.562 57.9346 82.1577 57.6182 82.1577 57.1523C82.1577 56.5459 82.7378 56.1416 83.6255 56.1416C84.5747 56.1416 85.1812 56.6074 85.2339 57.3633H87.5982C87.563 55.5352 86.0249 54.3398 83.6607 54.3398C81.2437 54.3398 79.688 55.5176 79.688 57.3105Z" fill="white"/>
<defs>
<linearGradient id="paint0_linear" x1="58.4972" y1="0.334961" x2="58.4972" y2="114.205" gradientUnits="userSpaceOnUse">
<stop stop-color="#FF003D" stop-opacity="0.49"/>
<stop offset="1" stop-color="white" stop-opacity="0"/>
</linearGradient>
<linearGradient id="paint1_linear" x1="58.3711" y1="110.707" x2="58.3711" y2="3.79709" gradientUnits="userSpaceOnUse">
<stop stop-color="#FF003D"/>
<stop offset="1" stop-color="white"/>
</linearGradient>
</defs>
</svg>
