<svg width="121" height="119" viewBox="0 0 121 119" fill="none" xmlns="http://www.w3.org/2000/svg">
<ellipse cx="60.3655" cy="59.243" rx="60.052" ry="59.0184" fill="#C0C0C0"/>
<ellipse cx="60.3655" cy="59.243" rx="60.052" ry="59.0184" fill="url(#paint0_linear)" style="mix-blend-mode:lighten"/>
<path d="M115.042 59.2256C115.042 29.4757 90.4951 5.31444 60.1601 5.31444C29.8252 5.31444 5.27856 29.4757 5.27856 59.2256C5.27856 88.9754 29.8252 113.137 60.1601 113.137C90.4951 113.137 115.042 88.9754 115.042 59.2256Z" fill="#B0B0B0"/>
<path d="M115.042 59.2256C115.042 29.4757 90.4951 5.31444 60.1601 5.31444C29.8252 5.31444 5.27856 29.4757 5.27856 59.2256C5.27856 88.9754 29.8252 113.137 60.1601 113.137C90.4951 113.137 115.042 88.9754 115.042 59.2256Z" fill="url(#paint1_linear)" style="mix-blend-mode:lighten"/>
<path d="M115.042 59.2256C115.042 29.4757 90.4951 5.31444 60.1601 5.31444C29.8252 5.31444 5.27856 29.4757 5.27856 59.2256C5.27856 88.9754 29.8252 113.137 60.1601 113.137C90.4951 113.137 115.042 88.9754 115.042 59.2256Z" stroke="white" stroke-width="3"/>
<path opacity="0.6" d="M30.8074 65.6602V52.9775H28.1531V58.1279H22.4402V52.9775H19.7859V65.6602H22.4402V60.3164H28.1531V65.6602H30.8074ZM36.4748 63.9551C35.6046 63.9551 35.0246 63.5156 35.0246 62.8125C35.0246 62.1445 35.5695 61.7139 36.5275 61.6436L38.5138 61.5205V62.2061C38.5138 63.2256 37.591 63.9551 36.4748 63.9551ZM35.631 65.8096C36.8087 65.8096 37.9777 65.2207 38.505 64.2188H38.5578V65.6602H41.0363V59.1826C41.0363 57.2842 39.463 56.0361 37.046 56.0361C34.55 56.0361 32.9943 57.293 32.8976 59.1211H35.2443C35.3673 58.4268 35.9738 57.9521 36.9318 57.9521C37.8986 57.9521 38.5138 58.4619 38.5138 59.3408V59.9648L36.1408 60.1055C33.7941 60.2461 32.4757 61.2393 32.4757 62.9531C32.4757 64.6494 33.838 65.8096 35.631 65.8096ZM43.0474 65.6602H45.6138V60.2549C45.6138 59.0332 46.3433 58.1895 47.4947 58.1895C48.646 58.1895 49.2261 58.8926 49.2261 60.123V65.6602H51.7925V59.5869C51.7925 57.3809 50.6148 56.0625 48.523 56.0625C47.0728 56.0625 46.0796 56.748 45.5787 57.917H45.5259V56.2383H43.0474V65.6602ZM58.1191 63.6562C56.8447 63.6562 56.0537 62.6543 56.0537 60.9316C56.0537 59.2178 56.8535 58.1455 58.1191 58.1455C59.4023 58.1455 60.2197 59.2354 60.2197 60.9316C60.2197 62.6367 59.4023 63.6562 58.1191 63.6562ZM58.0751 69.2109C60.8964 69.2109 62.7773 67.7783 62.7773 65.5283V56.2383H60.246V57.8818H60.2021C59.7099 56.8008 58.6464 56.0889 57.2929 56.0889C54.9023 56.0889 53.4257 57.9258 53.4257 60.9141C53.4257 63.8584 54.9462 65.6338 57.249 65.6338C58.6113 65.6338 59.7187 64.9482 60.1582 63.9463H60.2109V65.5986C60.2109 66.6885 59.4726 67.4268 58.1455 67.4268C57.1699 67.4268 56.4316 66.9785 56.2294 66.3281H53.7158C53.9179 68.0068 55.5966 69.2109 58.0751 69.2109ZM69.1302 65.8623C71.9779 65.8623 73.7972 64.043 73.7972 60.9404C73.7972 57.8818 71.9515 56.0361 69.1302 56.0361C66.3089 56.0361 64.4632 57.8906 64.4632 60.9404C64.4632 64.0342 66.2826 65.8623 69.1302 65.8623ZM69.1302 63.9023C67.8646 63.9023 67.0648 62.8389 67.0648 60.9492C67.0648 59.0771 67.8822 57.9961 69.1302 57.9961C70.3783 57.9961 71.1869 59.0771 71.1869 60.9492C71.1869 62.8389 70.3871 63.9023 69.1302 63.9023ZM84.1755 56.2383H81.6091V61.6348C81.6091 62.8828 80.8972 63.7002 79.7546 63.7002C78.6209 63.7002 77.9968 63.0322 77.9968 61.7754V56.2383H75.4304V62.3115C75.4304 64.5088 76.7839 65.8359 78.823 65.8359C80.2468 65.8359 81.1785 65.1504 81.6443 63.9639H81.697V65.6602H84.1755V56.2383ZM86.881 54.0674V56.2383H85.5539V58.1719H86.881V63.1201C86.881 64.957 87.7423 65.6953 89.9572 65.6953C90.4757 65.6953 90.9152 65.6514 91.1789 65.5898V63.7002C91.0207 63.7266 90.7834 63.7441 90.5548 63.7441C89.799 63.7441 89.4474 63.4014 89.4474 62.6807V58.1719H91.1877V56.2383H89.4474V54.0674H86.881ZM92.7857 59.0068C92.7857 60.3955 93.6998 61.3271 95.4839 61.7314L97.2242 62.1182C98.0679 62.3203 98.3843 62.584 98.3843 63.0586C98.3843 63.6738 97.7955 64.0605 96.8199 64.0605C95.8003 64.0605 95.1763 63.6035 95.0533 62.8125H92.5484C92.689 64.6494 94.2359 65.8623 96.7496 65.8623C99.2369 65.8623 100.942 64.6406 100.942 62.7861C100.942 61.3799 100.177 60.6328 98.2876 60.2109L96.4859 59.8242C95.6597 59.6309 95.2554 59.3145 95.2554 58.8486C95.2554 58.2422 95.8355 57.8379 96.7232 57.8379C97.6724 57.8379 98.2789 58.3037 98.3316 59.0596H100.696C100.661 57.2314 99.1226 56.0361 96.7583 56.0361C94.3414 56.0361 92.7857 57.2139 92.7857 59.0068Z" fill="#464646"/>
<defs>
<linearGradient id="paint0_linear" x1="60.3655" y1="0.224609" x2="60.3655" y2="118.261" gradientUnits="userSpaceOnUse">
<stop stop-color="#B0B0B0" stop-opacity="0.49"/>
<stop offset="1" stop-color="white" stop-opacity="0"/>
</linearGradient>
<linearGradient id="paint1_linear" x1="60.1601" y1="114.637" x2="60.1601" y2="3.81443" gradientUnits="userSpaceOnUse">
<stop stop-color="white"/>
<stop offset="1" stop-color="#C2C2C4"/>
</linearGradient>
</defs>
</svg>
