<svg width="121" height="119" viewBox="0 0 121 119" fill="none" xmlns="http://www.w3.org/2000/svg">
<ellipse cx="60.3594" cy="59.3963" rx="60.052" ry="59.0184" fill="#C0C0C0"/>
<ellipse cx="60.3594" cy="59.3963" rx="60.052" ry="59.0184" fill="url(#paint0_linear)" style="mix-blend-mode:lighten"/>
<path d="M115.017 59.3779C115.017 29.6281 90.4702 5.46677 60.1352 5.46677C29.8003 5.46677 5.25366 29.6281 5.25366 59.3779C5.25366 89.1278 29.8003 113.289 60.1352 113.289C90.4702 113.289 115.017 89.1278 115.017 59.3779Z" fill="#B0B0B0"/>
<path d="M115.017 59.3779C115.017 29.6281 90.4702 5.46677 60.1352 5.46677C29.8003 5.46677 5.25366 29.6281 5.25366 59.3779C5.25366 89.1278 29.8003 113.289 60.1352 113.289C90.4702 113.289 115.017 89.1278 115.017 59.3779Z" fill="url(#paint1_linear)" style="mix-blend-mode:lighten"/>
<path d="M115.017 59.3779C115.017 29.6281 90.4702 5.46677 60.1352 5.46677C29.8003 5.46677 5.25366 29.6281 5.25366 59.3779C5.25366 89.1278 29.8003 113.289 60.1352 113.289C90.4702 113.289 115.017 89.1278 115.017 59.3779Z" stroke="white" stroke-width="3"/>
<path opacity="0.6" d="M45.4152 51.6582C48.1222 51.6582 49.8009 50.2607 49.8009 48.0283C49.8009 46.3496 48.5353 45.0928 46.8127 44.9609V44.8906C48.1574 44.6885 49.1945 43.5283 49.1945 42.1396C49.1945 40.1973 47.7004 38.9756 45.3185 38.9756H39.799V51.6582H45.4152ZM42.4533 40.9531H44.633C45.8722 40.9531 46.5841 41.5332 46.5841 42.5527C46.5841 43.625 45.7756 44.249 44.3605 44.249H42.4533V40.9531ZM42.4533 49.6807V45.998H44.6769C46.2414 45.998 47.0939 46.6309 47.0939 47.8174C47.0939 49.0303 46.2677 49.6807 44.7384 49.6807H42.4533ZM55.7672 51.8604C58.6148 51.8604 60.4341 50.041 60.4341 46.9385C60.4341 43.8799 58.5884 42.0342 55.7672 42.0342C52.9459 42.0342 51.1002 43.8887 51.1002 46.9385C51.1002 50.0322 52.9195 51.8604 55.7672 51.8604ZM55.7672 49.9004C54.5015 49.9004 53.7017 48.8369 53.7017 46.9473C53.7017 45.0752 54.5191 43.9941 55.7672 43.9941C57.0152 43.9941 57.8238 45.0752 57.8238 46.9473C57.8238 48.8369 57.024 49.9004 55.7672 49.9004ZM66.4355 51.8604C69.2832 51.8604 71.1025 50.041 71.1025 46.9385C71.1025 43.8799 69.2568 42.0342 66.4355 42.0342C63.6142 42.0342 61.7685 43.8887 61.7685 46.9385C61.7685 50.0322 63.5879 51.8604 66.4355 51.8604ZM66.4355 49.9004C65.1699 49.9004 64.3701 48.8369 64.3701 46.9473C64.3701 45.0752 65.1875 43.9941 66.4355 43.9941C67.6836 43.9941 68.4922 45.0752 68.4922 46.9473C68.4922 48.8369 67.6923 49.9004 66.4355 49.9004ZM75.4427 46.0156H75.4076V38.9756H72.8412V51.6582H75.4076V48.5469L76.0756 47.8262L78.7738 51.6582H81.7269L77.9564 46.2793L81.5511 42.2363H78.642L75.4427 46.0156ZM47.1642 79.8779C50.2756 79.8779 52.4464 78.085 52.7453 75.2549H50.1613C49.88 76.7578 48.7463 77.6807 47.173 77.6807C45.1427 77.6807 43.8683 76.0107 43.8683 73.3037C43.8683 70.6318 45.1603 68.9531 47.1642 68.9531C48.7111 68.9531 49.9064 69.9727 50.1525 71.5283H52.7365C52.5343 68.6895 50.214 66.7559 47.1642 66.7559C43.4904 66.7559 41.1613 69.2256 41.1613 73.3125C41.1613 77.4082 43.4728 79.8779 47.1642 79.8779ZM54.5806 79.6582H57.147V66.9756H54.5806V79.6582ZM67.9297 70.2363H65.3632V75.6328C65.3632 76.8809 64.6513 77.6982 63.5088 77.6982C62.375 77.6982 61.7509 77.0303 61.7509 75.7734V70.2363H59.1845V76.3096C59.1845 78.5068 60.5381 79.834 62.5771 79.834C64.0009 79.834 64.9326 79.1484 65.3984 77.9619H65.4511V79.6582H67.9297V70.2363ZM75.5482 79.8076C77.9213 79.8076 79.3714 77.9795 79.3714 74.9473C79.3714 71.9062 77.9125 70.0869 75.5394 70.0869C74.1947 70.0869 73.1488 70.7549 72.6302 71.8711H72.5775V66.9756H70.0111V79.6582H72.5423V78.041H72.5951C73.1136 79.1396 74.1683 79.8076 75.5482 79.8076ZM74.6605 72.1436C75.9349 72.1436 76.7435 73.2334 76.7435 74.9473C76.7435 76.6699 75.9437 77.7422 74.6605 77.7422C73.4125 77.7422 72.5687 76.6523 72.5687 74.9473C72.5687 73.2598 73.4213 72.1436 74.6605 72.1436Z" fill="#464646"/>
<defs>
<linearGradient id="paint0_linear" x1="60.3594" y1="0.37793" x2="60.3594" y2="118.415" gradientUnits="userSpaceOnUse">
<stop stop-color="#B0B0B0" stop-opacity="0.49"/>
<stop offset="1" stop-color="white" stop-opacity="0"/>
</linearGradient>
<linearGradient id="paint1_linear" x1="60.1352" y1="114.789" x2="60.1352" y2="3.96677" gradientUnits="userSpaceOnUse">
<stop stop-color="white"/>
<stop offset="1" stop-color="#C2C2C4"/>
</linearGradient>
</defs>
</svg>
