<svg width="121" height="119" viewBox="0 0 121 119" fill="none" xmlns="http://www.w3.org/2000/svg">
<ellipse cx="60.8828" cy="59.5516" rx="60.052" ry="59.0184" fill="#C0C0C0"/>
<ellipse cx="60.8828" cy="59.5516" rx="60.052" ry="59.0184" fill="url(#paint0_linear)" style="mix-blend-mode:lighten"/>
<path d="M115.54 59.5332C115.54 29.7833 90.9936 5.62205 60.6587 5.62205C30.3238 5.62205 5.7771 29.7833 5.7771 59.5332C5.7771 89.283 30.3238 113.444 60.6587 113.444C90.9936 113.444 115.54 89.283 115.54 59.5332Z" fill="#B0B0B0"/>
<path d="M115.54 59.5332C115.54 29.7833 90.9936 5.62205 60.6587 5.62205C30.3238 5.62205 5.7771 29.7833 5.7771 59.5332C5.7771 89.283 30.3238 113.444 60.6587 113.444C90.9936 113.444 115.54 89.283 115.54 59.5332Z" fill="url(#paint1_linear)" style="mix-blend-mode:lighten"/>
<path d="M115.54 59.5332C115.54 29.7833 90.9936 5.62205 60.6587 5.62205C30.3238 5.62205 5.7771 29.7833 5.7771 59.5332C5.7771 89.283 30.3238 113.444 60.6587 113.444C90.9936 113.444 115.54 89.283 115.54 59.5332Z" stroke="white" stroke-width="3"/>
<path opacity="0.6" d="M48.4078 65.8135H51.0358V53.1309H48.399L45.1207 55.4072V57.7979L48.3551 55.5654H48.4078V65.8135ZM59.208 66.0947C62.2578 66.0947 64.3496 64.583 64.3496 62.3857C64.3496 60.7158 63.1455 59.4238 61.3701 59.125V59.0723C62.8467 58.7207 63.8311 57.5869 63.8311 56.207C63.8311 54.2559 61.9326 52.8496 59.208 52.8496C56.4922 52.8496 54.5762 54.2646 54.5762 56.1982C54.5762 57.5957 55.5693 58.7295 57.0459 59.0723V59.125C55.2793 59.415 54.0664 60.707 54.0664 62.377C54.0664 64.5742 56.1318 66.0947 59.208 66.0947ZM59.208 64.1611C57.8106 64.1611 56.835 63.3262 56.835 62.1836C56.835 61.041 57.8106 60.2061 59.208 60.2061C60.6055 60.2061 61.5723 61.041 61.5723 62.1836C61.5723 63.3262 60.6055 64.1611 59.208 64.1611ZM59.208 58.2725C58.0303 58.2725 57.2041 57.5342 57.2041 56.5234C57.2041 55.5127 58.0303 54.7656 59.208 54.7656C60.377 54.7656 61.2119 55.5039 61.2119 56.5234C61.2119 57.5342 60.377 58.2725 59.208 58.2725ZM72.4076 61.8496H75.9936V59.6084H72.4076V55.8115H70.1049V59.6084H66.519V61.8496H70.1049V65.6904H72.4076V61.8496Z" fill="#464646"/>
<defs>
<linearGradient id="paint0_linear" x1="60.8828" y1="0.533203" x2="60.8828" y2="118.57" gradientUnits="userSpaceOnUse">
<stop stop-color="#B0B0B0" stop-opacity="0.49"/>
<stop offset="1" stop-color="white" stop-opacity="0"/>
</linearGradient>
<linearGradient id="paint1_linear" x1="60.6587" y1="114.944" x2="60.6587" y2="4.12205" gradientUnits="userSpaceOnUse">
<stop stop-color="white"/>
<stop offset="1" stop-color="#C2C2C4"/>
</linearGradient>
</defs>
</svg>
