<svg width="105" height="104" viewBox="0 0 105 104" fill="none" xmlns="http://www.w3.org/2000/svg">
<ellipse cx="52.4355" cy="52.2385" rx="52.2074" ry="51.3088" fill="#C0C0C0"/>
<ellipse cx="52.4355" cy="52.2385" rx="52.2074" ry="51.3088" fill="url(#paint0_linear)" style="mix-blend-mode:lighten"/>
<path d="M99.7456 52.2226C99.7456 77.9748 78.4964 98.8954 52.2291 98.8954C25.9618 98.8954 4.71265 77.9748 4.71265 52.2226C4.71265 26.4704 25.9618 5.5498 52.2291 5.5498C78.4964 5.5498 99.7456 26.4704 99.7456 52.2226Z" fill="#B0B0B0"/>
<path d="M99.7456 52.2226C99.7456 77.9748 78.4964 98.8954 52.2291 98.8954C25.9618 98.8954 4.71265 77.9748 4.71265 52.2226C4.71265 26.4704 25.9618 5.5498 52.2291 5.5498C78.4964 5.5498 99.7456 26.4704 99.7456 52.2226Z" fill="url(#paint1_linear)" style="mix-blend-mode:lighten"/>
<path d="M99.7456 52.2226C99.7456 77.9748 78.4964 98.8954 52.2291 98.8954C25.9618 98.8954 4.71265 77.9748 4.71265 52.2226C4.71265 26.4704 25.9618 5.5498 52.2291 5.5498C78.4964 5.5498 99.7456 26.4704 99.7456 52.2226Z" stroke="white" stroke-width="3"/>
<ellipse rx="3.28188" ry="13.1183" transform="matrix(0.727329 -0.686289 0.698802 0.715316 78.0895 23.4263)" fill="white" fill-opacity="0.37"/>
<path d="M34.6017 57.9121V45.2295H31.5256L27.9221 54.2207H27.8517L24.2482 45.2295H21.1721V57.9121H23.5363V49.3516H23.6066L27.0519 57.7891H28.7219L32.1672 49.3516H32.2375V57.9121H34.6017ZM41.0689 50.1865C42.2115 50.1865 42.9937 51.0127 43.0465 52.2168H39.0474C39.1353 51.0391 39.9439 50.1865 41.0689 50.1865ZM43.0816 55.0293C42.8443 55.75 42.1236 56.2158 41.1832 56.2158C39.8736 56.2158 39.0211 55.293 39.0211 53.9482V53.79H45.5162V53.0078C45.5162 50.1426 43.7847 48.2881 41.0426 48.2881C38.2564 48.2881 36.4986 50.2393 36.4986 53.2451C36.4986 56.2598 38.2388 58.1143 41.1392 58.1143C43.4683 58.1143 45.1558 56.875 45.4371 55.0293H43.0816ZM51.4209 50.1865C52.5635 50.1865 53.3457 51.0127 53.3984 52.2168H49.3994C49.4873 51.0391 50.2959 50.1865 51.4209 50.1865ZM53.4336 55.0293C53.1963 55.75 52.4756 56.2158 51.5351 56.2158C50.2256 56.2158 49.373 55.293 49.373 53.9482V53.79H55.8681V53.0078C55.8681 50.1426 54.1367 48.2881 51.3945 48.2881C48.6084 48.2881 46.8506 50.2393 46.8506 53.2451C46.8506 56.2598 48.5908 58.1143 51.4912 58.1143C53.8203 58.1143 55.5078 56.875 55.789 55.0293H53.4336ZM58.2308 46.3193V48.4902H56.9037V50.4238H58.2308V55.3721C58.2308 57.209 59.0922 57.9473 61.307 57.9473C61.8256 57.9473 62.265 57.9033 62.5287 57.8418V55.9521C62.3705 55.9785 62.1332 55.9961 61.9047 55.9961C61.1488 55.9961 60.7972 55.6533 60.7972 54.9326V50.4238H62.5375V48.4902H60.7972V46.3193H58.2308ZM72.9949 48.4902H70.4285V53.8867C70.4285 55.1348 69.7166 55.9521 68.574 55.9521C67.4402 55.9521 66.8162 55.2842 66.8162 54.0273V48.4902H64.2498V54.5635C64.2498 56.7607 65.6033 58.0879 67.6424 58.0879C69.0662 58.0879 69.9978 57.4023 70.4637 56.2158H70.5164V57.9121H72.9949V48.4902ZM80.5168 48.3408C79.1545 48.3408 78.1086 49.0264 77.5988 50.1338H77.5461V48.4902H75.0148V60.9883H77.5812V56.3301H77.634C78.1349 57.3936 79.1896 58.0615 80.5607 58.0615C82.9162 58.0615 84.3752 56.2334 84.3752 53.2012C84.3752 50.1602 82.9074 48.3408 80.5168 48.3408ZM79.6554 55.9961C78.3986 55.9961 77.5724 54.9062 77.5724 53.2012C77.5724 51.5137 78.3986 50.3975 79.6554 50.3975C80.9387 50.3975 81.7472 51.4961 81.7472 53.2012C81.7472 54.915 80.9387 55.9961 79.6554 55.9961Z" fill="#464646"/>
<defs>
<linearGradient id="paint0_linear" x1="52.4355" y1="0.929687" x2="52.4355" y2="103.547" gradientUnits="userSpaceOnUse">
<stop stop-color="#B0B0B0" stop-opacity="0.49"/>
<stop offset="1" stop-color="white" stop-opacity="0"/>
</linearGradient>
<linearGradient id="paint1_linear" x1="52.2291" y1="4.0498" x2="52.2291" y2="100.395" gradientUnits="userSpaceOnUse">
<stop stop-color="white" stop-opacity="0.49"/>
<stop offset="1" stop-color="#C2C2C4" stop-opacity="0"/>
</linearGradient>
</defs>
</svg>
