<svg width="99" height="97" viewBox="0 0 99 97" fill="none" xmlns="http://www.w3.org/2000/svg">
<ellipse cx="49.4407" cy="48.6235" rx="48.8013" ry="47.9614" fill="#C0C0C0"/>
<ellipse cx="49.4407" cy="48.6235" rx="48.8013" ry="47.9614" fill="url(#paint0_linear)" style="mix-blend-mode:lighten"/>
<path d="M93.235 48.6097C93.235 24.5933 73.4176 5.07981 48.9164 5.07981C24.4153 5.07981 4.5979 24.5933 4.5979 48.6097C4.5979 72.6262 24.4153 92.1396 48.9164 92.1396C73.4176 92.1396 93.235 72.6262 93.235 48.6097Z" fill="#B0B0B0"/>
<path d="M93.235 48.6097C93.235 24.5933 73.4176 5.07981 48.9164 5.07981C24.4153 5.07981 4.5979 24.5933 4.5979 48.6097C4.5979 72.6262 24.4153 92.1396 48.9164 92.1396C73.4176 92.1396 93.235 72.6262 93.235 48.6097Z" fill="url(#paint1_linear)" style="mix-blend-mode:lighten"/>
<path d="M93.235 48.6097C93.235 24.5933 73.4176 5.07981 48.9164 5.07981C24.4153 5.07981 4.5979 24.5933 4.5979 48.6097C4.5979 72.6262 24.4153 92.1396 48.9164 92.1396C73.4176 92.1396 93.235 72.6262 93.235 48.6097Z" stroke="white" stroke-width="3"/>
<path opacity="0.6" d="M20.5198 42.1602V54.8428H25.3626C29.1683 54.8428 31.4095 52.4785 31.4095 48.4531C31.4095 44.4277 29.1683 42.1602 25.3626 42.1602H20.5198ZM23.1741 44.3486H25.0462C27.3841 44.3486 28.7025 45.8076 28.7025 48.4619C28.7025 51.2041 27.4193 52.6455 25.0462 52.6455H23.1741V44.3486ZM37.4812 47.1172C38.6238 47.1172 39.406 47.9434 39.4587 49.1475H35.4597C35.5476 47.9697 36.3562 47.1172 37.4812 47.1172ZM39.4939 51.96C39.2566 52.6807 38.5359 53.1465 37.5954 53.1465C36.2859 53.1465 35.4333 52.2236 35.4333 50.8789V50.7207H41.9284V49.9385C41.9284 47.0732 40.197 45.2188 37.4548 45.2188C34.6687 45.2188 32.9109 47.1699 32.9109 50.1758C32.9109 53.1904 34.6511 55.0449 37.5515 55.0449C39.8806 55.0449 41.5681 53.8057 41.8493 51.96H39.4939ZM43.4474 48.1895C43.4474 49.5781 44.3614 50.5098 46.1456 50.9141L47.8859 51.3008C48.7296 51.5029 49.046 51.7666 49.046 52.2412C49.046 52.8564 48.4572 53.2432 47.4816 53.2432C46.462 53.2432 45.838 52.7861 45.715 51.9951H43.2101C43.3507 53.832 44.8976 55.0449 47.4113 55.0449C49.8986 55.0449 51.6036 53.8232 51.6036 51.9688C51.6036 50.5625 50.839 49.8154 48.9493 49.3936L47.1476 49.0068C46.3214 48.8135 45.9171 48.4971 45.9171 48.0312C45.9171 47.4248 46.4972 47.0205 47.3849 47.0205C48.3341 47.0205 48.9405 47.4863 48.9933 48.2422H51.3575C51.3224 46.4141 49.7843 45.2188 47.42 45.2188C45.003 45.2188 43.4474 46.3965 43.4474 48.1895ZM53.2808 54.8428H55.8472V45.4209H53.2808V54.8428ZM54.564 44.3838C55.3374 44.3838 55.9351 43.7949 55.9351 43.0566C55.9351 42.3096 55.3374 41.7295 54.564 41.7295C53.7906 41.7295 53.1929 42.3096 53.1929 43.0566C53.1929 43.7949 53.7906 44.3838 54.564 44.3838ZM62.2616 52.8389C60.9872 52.8389 60.1962 51.8369 60.1962 50.1143C60.1962 48.4004 60.996 47.3281 62.2616 47.3281C63.5448 47.3281 64.3622 48.418 64.3622 50.1143C64.3622 51.8193 63.5448 52.8389 62.2616 52.8389ZM62.2177 58.3936C65.039 58.3936 66.9198 56.9609 66.9198 54.7109V45.4209H64.3886V47.0645H64.3447C63.8525 45.9834 62.789 45.2715 61.4355 45.2715C59.0448 45.2715 57.5683 47.1084 57.5683 50.0967C57.5683 53.041 59.0888 54.8164 61.3915 54.8164C62.7538 54.8164 63.8613 54.1309 64.3007 53.1289H64.3534V54.7812C64.3534 55.8711 63.6152 56.6094 62.288 56.6094C61.3124 56.6094 60.5741 56.1611 60.372 55.5107H57.8583C58.0605 57.1895 59.7392 58.3936 62.2177 58.3936ZM68.9486 54.8428H71.515V49.4375C71.515 48.2158 72.2445 47.3721 73.3958 47.3721C74.5472 47.3721 75.1273 48.0752 75.1273 49.3057V54.8428H77.6937V48.7695C77.6937 46.5635 76.5159 45.2451 74.4241 45.2451C72.9739 45.2451 71.9808 45.9307 71.4798 47.0996H71.4271V45.4209H68.9486V54.8428Z" fill="#464646"/>
<defs>
<linearGradient id="paint0_linear" x1="49.4407" y1="0.662109" x2="49.4407" y2="96.5848" gradientUnits="userSpaceOnUse">
<stop stop-color="#B0B0B0" stop-opacity="0.49"/>
<stop offset="1" stop-color="white" stop-opacity="0"/>
</linearGradient>
<linearGradient id="paint1_linear" x1="48.9164" y1="93.6396" x2="48.9164" y2="3.57981" gradientUnits="userSpaceOnUse">
<stop stop-color="white"/>
<stop offset="1" stop-color="#C2C2C4"/>
</linearGradient>
</defs>
</svg>
