<svg width="105" height="103" viewBox="0 0 105 103" fill="none" xmlns="http://www.w3.org/2000/svg">
<ellipse cx="52.7372" cy="51.6438" rx="52.2074" ry="51.3088" fill="#F18928"/>
<ellipse cx="52.7372" cy="51.6438" rx="52.2074" ry="51.3088" fill="url(#paint0_linear)" style="mix-blend-mode:lighten"/>
<path d="M100.047 51.6269C100.047 77.3791 78.7982 98.2997 52.5309 98.2997C26.2636 98.2997 5.0144 77.3791 5.0144 51.6269C5.0144 25.8747 26.2636 4.9541 52.5309 4.9541C78.7982 4.9541 100.047 25.8747 100.047 51.6269Z" fill="#F18928"/>
<path d="M100.047 51.6269C100.047 77.3791 78.7982 98.2997 52.5309 98.2997C26.2636 98.2997 5.0144 77.3791 5.0144 51.6269C5.0144 25.8747 26.2636 4.9541 52.5309 4.9541C78.7982 4.9541 100.047 25.8747 100.047 51.6269Z" fill="url(#paint1_linear)" style="mix-blend-mode:lighten"/>
<path d="M100.047 51.6269C100.047 77.3791 78.7982 98.2997 52.5309 98.2997C26.2636 98.2997 5.0144 77.3791 5.0144 51.6269C5.0144 25.8747 26.2636 4.9541 52.5309 4.9541C78.7982 4.9541 100.047 25.8747 100.047 51.6269Z" stroke="white" stroke-width="3"/>
<ellipse rx="3.28188" ry="13.1183" transform="matrix(0.727329 -0.686289 0.698802 0.715316 78.3912 22.8306)" fill="white" fill-opacity="0.37"/>
<path d="M34.9035 57.3174V44.6348H31.8273L28.2238 53.626H28.1535L24.55 44.6348H21.4738V57.3174H23.8381V48.7568H23.9084L27.3537 57.1943H29.0236L32.4689 48.7568H32.5392V57.3174H34.9035ZM41.3707 49.5918C42.5133 49.5918 43.2955 50.418 43.3482 51.6221H39.3492C39.4371 50.4443 40.2457 49.5918 41.3707 49.5918ZM43.3834 54.4346C43.1461 55.1553 42.4254 55.6211 41.4849 55.6211C40.1754 55.6211 39.3228 54.6982 39.3228 53.3535V53.1953H45.8179V52.4131C45.8179 49.5479 44.0865 47.6934 41.3443 47.6934C38.5582 47.6934 36.8004 49.6445 36.8004 52.6504C36.8004 55.665 38.5406 57.5195 41.441 57.5195C43.7701 57.5195 45.4576 56.2803 45.7388 54.4346H43.3834ZM51.7226 49.5918C52.8652 49.5918 53.6474 50.418 53.7002 51.6221H49.7012C49.789 50.4443 50.5976 49.5918 51.7226 49.5918ZM53.7353 54.4346C53.498 55.1553 52.7773 55.6211 51.8369 55.6211C50.5273 55.6211 49.6748 54.6982 49.6748 53.3535V53.1953H56.1699V52.4131C56.1699 49.5479 54.4385 47.6934 51.6963 47.6934C48.9101 47.6934 47.1523 49.6445 47.1523 52.6504C47.1523 55.665 48.8926 57.5195 51.7929 57.5195C54.1221 57.5195 55.8096 56.2803 56.0908 54.4346H53.7353ZM58.5326 45.7246V47.8955H57.2054V49.8291H58.5326V54.7773C58.5326 56.6143 59.3939 57.3525 61.6088 57.3525C62.1273 57.3525 62.5668 57.3086 62.8304 57.2471V55.3574C62.6722 55.3838 62.4349 55.4014 62.2064 55.4014C61.4506 55.4014 61.099 55.0586 61.099 54.3379V49.8291H62.8392V47.8955H61.099V45.7246H58.5326ZM73.2967 47.8955H70.7303V53.292C70.7303 54.54 70.0183 55.3574 68.8758 55.3574C67.742 55.3574 67.118 54.6895 67.118 53.4326V47.8955H64.5515V53.9688C64.5515 56.166 65.9051 57.4932 67.9441 57.4932C69.368 57.4932 70.2996 56.8076 70.7654 55.6211H70.8181V57.3174H73.2967V47.8955ZM80.8185 47.7461C79.4562 47.7461 78.4103 48.4316 77.9006 49.5391H77.8478V47.8955H75.3166V60.3936H77.883V55.7354H77.9357C78.4367 56.7988 79.4914 57.4668 80.8625 57.4668C83.2179 57.4668 84.6769 55.6387 84.6769 52.6064C84.6769 49.5654 83.2092 47.7461 80.8185 47.7461ZM79.9572 55.4014C78.7004 55.4014 77.8742 54.3115 77.8742 52.6064C77.8742 50.9189 78.7004 49.8027 79.9572 49.8027C81.2404 49.8027 82.049 50.9014 82.049 52.6064C82.049 54.3203 81.2404 55.4014 79.9572 55.4014Z" fill="white"/>
<defs>
<linearGradient id="paint0_linear" x1="52.7372" y1="0.334961" x2="52.7372" y2="102.953" gradientUnits="userSpaceOnUse">
<stop stop-color="#FF003D" stop-opacity="0.49"/>
<stop offset="1" stop-color="white" stop-opacity="0"/>
</linearGradient>
<linearGradient id="paint1_linear" x1="52.5309" y1="3.4541" x2="52.5309" y2="99.7997" gradientUnits="userSpaceOnUse">
<stop stop-color="#F31B1B" stop-opacity="0.49"/>
<stop offset="1" stop-color="white" stop-opacity="0"/>
</linearGradient>
</defs>
</svg>
