<svg width="113" height="111" viewBox="0 0 113 111" fill="none" xmlns="http://www.w3.org/2000/svg">
<ellipse cx="56.8451" cy="55.0211" rx="55.9847" ry="55.0211" fill="#C0C0C0"/>
<ellipse cx="56.8451" cy="55.0211" rx="55.9847" ry="55.0211" fill="url(#paint0_linear)" style="mix-blend-mode:lighten"/>
<path d="M108.313 55.0039C108.313 27.3268 85.4765 4.84577 57.2506 4.84577C29.0247 4.84577 6.18774 27.3268 6.18774 55.0039C6.18774 82.6811 29.0247 105.162 57.2506 105.162C85.4765 105.162 108.313 82.6811 108.313 55.0039Z" fill="#B0B0B0"/>
<path d="M108.313 55.0039C108.313 27.3268 85.4765 4.84577 57.2506 4.84577C29.0247 4.84577 6.18774 27.3268 6.18774 55.0039C6.18774 82.6811 29.0247 105.162 57.2506 105.162C85.4765 105.162 108.313 82.6811 108.313 55.0039Z" fill="url(#paint1_linear)" style="mix-blend-mode:lighten"/>
<path d="M108.313 55.0039C108.313 27.3268 85.4765 4.84577 57.2506 4.84577C29.0247 4.84577 6.18774 27.3268 6.18774 55.0039C6.18774 82.6811 29.0247 105.162 57.2506 105.162C85.4765 105.162 108.313 82.6811 108.313 55.0039Z" stroke="white" stroke-width="3"/>
<path opacity="0.6" d="M29.7141 57.1465C29.7932 59.5283 31.7355 60.9785 34.7853 60.9785C37.9318 60.9785 39.9269 59.4229 39.9269 56.9619C39.9269 55.0283 38.8195 53.9385 36.2795 53.3936L34.7414 53.0684C33.2824 52.7344 32.6672 52.2949 32.6672 51.5127C32.6672 50.5723 33.5461 49.9482 34.8557 49.9482C36.1828 49.9482 37.1232 50.5986 37.2111 51.6709H39.6984C39.6545 49.377 37.8 47.8564 34.8469 47.8564C32.0168 47.8564 29.9953 49.4033 29.9953 51.7412C29.9953 53.5957 31.1467 54.7822 33.4846 55.2832L35.1369 55.6436C36.6662 55.9863 37.2726 56.4434 37.2726 57.2695C37.2726 58.2012 36.3059 58.8779 34.8908 58.8779C33.4846 58.8779 32.3947 58.1924 32.2717 57.1465H29.7141ZM47.1939 51.1875C45.8316 51.1875 44.7857 51.873 44.276 52.9805H44.2232V51.3369H41.692V63.835H44.2584V59.1768H44.3111C44.8121 60.2402 45.8668 60.9082 47.2379 60.9082C49.5934 60.9082 51.0523 59.0801 51.0523 56.0479C51.0523 53.0068 49.5846 51.1875 47.1939 51.1875ZM46.3326 58.8428C45.0758 58.8428 44.2496 57.7529 44.2496 56.0479C44.2496 54.3604 45.0758 53.2441 46.3326 53.2441C47.6158 53.2441 48.4244 54.3428 48.4244 56.0479C48.4244 57.7617 47.6158 58.8428 46.3326 58.8428ZM57.0537 60.9609C59.9014 60.9609 61.7207 59.1416 61.7207 56.0391C61.7207 52.9805 59.875 51.1348 57.0537 51.1348C54.2324 51.1348 52.3867 52.9893 52.3867 56.0391C52.3867 59.1328 54.206 60.9609 57.0537 60.9609ZM57.0537 59.001C55.7881 59.001 54.9883 57.9375 54.9883 56.0479C54.9883 54.1758 55.8057 53.0947 57.0537 53.0947C58.3018 53.0947 59.1103 54.1758 59.1103 56.0479C59.1103 57.9375 58.3105 59.001 57.0537 59.001ZM63.3978 60.7588H65.9642V55.4941C65.9642 54.167 66.7025 53.3936 67.9682 53.3936C68.3373 53.3936 68.6889 53.4551 68.8998 53.543V51.2842C68.724 51.2314 68.4691 51.1875 68.1703 51.1875C67.0629 51.1875 66.2631 51.8379 65.9291 53.0332H65.8764V51.3369H63.3978V60.7588ZM70.99 49.166V51.3369H69.6629V53.2705H70.99V58.2188C70.99 60.0557 71.8514 60.7939 74.0662 60.7939C74.5848 60.7939 75.0242 60.75 75.2879 60.6885V58.7988C75.1297 58.8252 74.8924 58.8428 74.6639 58.8428C73.908 58.8428 73.5564 58.5 73.5564 57.7793V53.2705H75.2967V51.3369H73.5564V49.166H70.99ZM76.8947 54.1055C76.8947 55.4941 77.8088 56.4258 79.593 56.8301L81.3332 57.2168C82.1769 57.4189 82.4934 57.6826 82.4934 58.1572C82.4934 58.7725 81.9045 59.1592 80.9289 59.1592C79.9094 59.1592 79.2853 58.7021 79.1623 57.9111H76.6574C76.798 59.748 78.3449 60.9609 80.8586 60.9609C83.3459 60.9609 85.051 59.7393 85.051 57.8848C85.051 56.4785 84.2863 55.7314 82.3967 55.3096L80.5949 54.9229C79.7687 54.7295 79.3644 54.4131 79.3644 53.9473C79.3644 53.3408 79.9445 52.9365 80.8322 52.9365C81.7814 52.9365 82.3879 53.4023 82.4406 54.1582H84.8049C84.7697 52.3301 83.2316 51.1348 80.8674 51.1348C78.4504 51.1348 76.8947 52.3125 76.8947 54.1055Z" fill="#464646"/>
<defs>
<linearGradient id="paint0_linear" x1="56.8451" y1="0" x2="56.8451" y2="110.042" gradientUnits="userSpaceOnUse">
<stop stop-color="#B0B0B0" stop-opacity="0.49"/>
<stop offset="1" stop-color="white" stop-opacity="0"/>
</linearGradient>
<linearGradient id="paint1_linear" x1="57.2506" y1="106.662" x2="57.2506" y2="3.34577" gradientUnits="userSpaceOnUse">
<stop stop-color="white"/>
<stop offset="1" stop-color="#C2C2C4"/>
</linearGradient>
</defs>
</svg>
