<svg width="166" height="163" viewBox="0 0 166 163" fill="none" xmlns="http://www.w3.org/2000/svg">
<ellipse cx="83.139" cy="81.2148" rx="82.4325" ry="81.0137" fill="#C0C0C0"/>
<ellipse cx="83.139" cy="81.2148" rx="82.4325" ry="81.0137" fill="url(#paint0_linear)" style="mix-blend-mode:lighten"/>
<path d="M7.31967 81.5093C7.31967 40.3542 41.274 6.94724 83.2138 6.94724C125.154 6.94724 159.108 40.3542 159.108 81.5093C159.108 122.664 125.154 156.071 83.2138 156.071C41.274 156.071 7.31967 122.664 7.31967 81.5093Z" fill="#B0B0B0"/>
<path d="M7.31967 81.5093C7.31967 40.3542 41.274 6.94724 83.2138 6.94724C125.154 6.94724 159.108 40.3542 159.108 81.5093C159.108 122.664 125.154 156.071 83.2138 156.071C41.274 156.071 7.31967 122.664 7.31967 81.5093Z" fill="url(#paint1_linear)" style="mix-blend-mode:lighten"/>
<path d="M7.31967 81.5093C7.31967 40.3542 41.274 6.94724 83.2138 6.94724C125.154 6.94724 159.108 40.3542 159.108 81.5093C159.108 122.664 125.154 156.071 83.2138 156.071C41.274 156.071 7.31967 122.664 7.31967 81.5093Z" stroke="white" stroke-width="3"/>
<path opacity="0.6" d="M74.9805 59.6357H77.8018L73.3897 46.9531H70.2696L65.8663 59.6357H68.5909L69.5577 56.5596H74.0138L74.9805 59.6357ZM71.755 49.3789H71.8165L73.4425 54.5732H70.129L71.755 49.3789ZM79.2329 59.6357H81.7993V54.3711C81.7993 53.0439 82.5376 52.2705 83.8032 52.2705C84.1723 52.2705 84.5239 52.332 84.7348 52.4199V50.1611C84.5591 50.1084 84.3042 50.0645 84.0054 50.0645C82.8979 50.0645 82.0981 50.7148 81.7641 51.9102H81.7114V50.2139H79.2329V59.6357ZM86.8251 48.043V50.2139H85.4979V52.1475H86.8251V57.0957C86.8251 58.9326 87.6864 59.6709 89.9013 59.6709C90.4198 59.6709 90.8593 59.627 91.1229 59.5654V57.6758C90.9647 57.7021 90.7274 57.7197 90.4989 57.7197C89.743 57.7197 89.3915 57.377 89.3915 56.6562V52.1475H91.1317V50.2139H89.3915V48.043H86.8251ZM92.7298 52.9824C92.7298 54.3711 93.6438 55.3027 95.428 55.707L97.1682 56.0938C98.012 56.2959 98.3284 56.5596 98.3284 57.0342C98.3284 57.6494 97.7395 58.0361 96.7639 58.0361C95.7444 58.0361 95.1204 57.5791 94.9973 56.7881H92.4925C92.6331 58.625 94.18 59.8379 96.6936 59.8379C99.1809 59.8379 100.886 58.6162 100.886 56.7617C100.886 55.3555 100.121 54.6084 98.2317 54.1865L96.43 53.7998C95.6038 53.6064 95.1995 53.29 95.1995 52.8242C95.1995 52.2178 95.7796 51.8135 96.6673 51.8135C97.6165 51.8135 98.2229 52.2793 98.2757 53.0352H100.64C100.605 51.207 99.0667 50.0117 96.7024 50.0117C94.2854 50.0117 92.7298 51.1895 92.7298 52.9824ZM86.9057 87.6357H89.7798L87.4155 85.166C88.1011 84.2168 88.4878 82.8809 88.4878 81.334V80.5166H86.352V81.1846C86.352 82.2744 86.2026 83.0391 85.895 83.584L83.4868 80.9824C85.2446 80.0244 86.0532 78.9873 86.0532 77.6865C86.0532 75.9814 84.5942 74.7861 82.52 74.7861C80.4546 74.7861 78.9253 76.0342 78.9253 77.7305C78.9253 78.6621 79.3559 79.4531 80.4985 80.6309C80.4634 80.6484 80.0591 80.8682 79.9272 80.9385C78.31 81.8262 77.5805 82.8721 77.5805 84.3135C77.5805 86.4668 79.312 87.8643 82.0014 87.8643C83.5395 87.8643 84.9897 87.3896 85.9302 86.5811L86.9057 87.6357ZM81.3247 82.1602C81.4038 82.1162 81.5796 82.0195 81.6763 81.9756L84.5854 85.1221C84.0932 85.6582 83.1792 86.001 82.2651 86.001C80.9028 86.001 79.98 85.2451 79.98 84.1113C79.98 83.3291 80.3667 82.7666 81.3247 82.1602ZM82.3003 79.7871C81.4389 78.9521 81.1225 78.4512 81.1225 77.8623C81.1225 77.0713 81.7114 76.4912 82.5288 76.4912C83.355 76.4912 83.9175 77.0537 83.9175 77.8623C83.9175 78.627 83.4516 79.1895 82.3003 79.7871ZM58.8022 115.855C61.9136 115.855 64.0845 114.062 64.3833 111.232H61.7993C61.518 112.735 60.3843 113.658 58.811 113.658C56.7807 113.658 55.5063 111.988 55.5063 109.281C55.5063 106.609 56.7983 104.931 58.8022 104.931C60.3491 104.931 61.5444 105.95 61.7905 107.506H64.3745C64.1723 104.667 61.852 102.733 58.8022 102.733C55.1284 102.733 52.7993 105.203 52.7993 109.29C52.7993 113.386 55.1108 115.855 58.8022 115.855ZM74.8583 106.214H72.2919V111.61C72.2919 112.858 71.58 113.676 70.4374 113.676C69.3036 113.676 68.6796 113.008 68.6796 111.751V106.214H66.1132V112.287C66.1132 114.484 67.4667 115.812 69.5057 115.812C70.9296 115.812 71.8612 115.126 72.327 113.939H72.3798V115.636H74.8583V106.214ZM76.9397 115.636H79.5061V102.953H76.9397V115.636ZM82.2731 104.043V106.214H80.946V108.147H82.2731V113.096C82.2731 114.933 83.1345 115.671 85.3493 115.671C85.8679 115.671 86.3073 115.627 86.571 115.565V113.676C86.4128 113.702 86.1755 113.72 85.947 113.72C85.1911 113.72 84.8395 113.377 84.8395 112.656V108.147H86.5798V106.214H84.8395V104.043H82.2731ZM97.0372 106.214H94.4708V111.61C94.4708 112.858 93.7589 113.676 92.6163 113.676C91.4825 113.676 90.8585 113.008 90.8585 111.751V106.214H88.2921V112.287C88.2921 114.484 89.6456 115.812 91.6847 115.812C93.1085 115.812 94.0401 115.126 94.5059 113.939H94.5587V115.636H97.0372V106.214ZM99.0571 115.636H101.624V110.371C101.624 109.044 102.362 108.271 103.627 108.271C103.997 108.271 104.348 108.332 104.559 108.42V106.161C104.383 106.108 104.128 106.064 103.83 106.064C102.722 106.064 101.922 106.715 101.588 107.91H101.536V106.214H99.0571V115.636ZM109.875 107.91C111.017 107.91 111.8 108.736 111.852 109.94H107.853C107.941 108.763 108.75 107.91 109.875 107.91ZM111.888 112.753C111.65 113.474 110.93 113.939 109.989 113.939C108.68 113.939 107.827 113.017 107.827 111.672V111.514H114.322V110.731C114.322 107.866 112.591 106.012 109.849 106.012C107.062 106.012 105.305 107.963 105.305 110.969C105.305 113.983 107.045 115.838 109.945 115.838C112.274 115.838 113.962 114.599 114.243 112.753H111.888Z" fill="#464646"/>
<defs>
<linearGradient id="paint0_linear" x1="83.139" y1="0.201172" x2="83.139" y2="162.229" gradientUnits="userSpaceOnUse">
<stop stop-color="#B0B0B0" stop-opacity="0.49"/>
<stop offset="1" stop-color="white" stop-opacity="0"/>
</linearGradient>
<linearGradient id="paint1_linear" x1="83.2138" y1="157.571" x2="83.2138" y2="5.44724" gradientUnits="userSpaceOnUse">
<stop stop-color="white"/>
<stop offset="1" stop-color="#C2C2C4"/>
</linearGradient>
</defs>
</svg>
