<svg width="145" height="142" viewBox="0 0 145 142" fill="none" xmlns="http://www.w3.org/2000/svg">
<ellipse cx="72.65" cy="70.8094" rx="71.9124" ry="70.6747" fill="#C0C0C0"/>
<ellipse cx="72.65" cy="70.8094" rx="71.9124" ry="70.6747" fill="url(#paint0_linear)" style="mix-blend-mode:lighten"/>
<path d="M138.733 70.7866C138.733 34.9927 109.2 5.93169 72.7155 5.93169C36.2307 5.93169 6.69849 34.9927 6.69849 70.7866C6.69849 106.581 36.2307 135.642 72.7155 135.642C109.2 135.642 138.733 106.581 138.733 70.7866Z" fill="#B0B0B0"/>
<path d="M138.733 70.7866C138.733 34.9927 109.2 5.93169 72.7155 5.93169C36.2307 5.93169 6.69849 34.9927 6.69849 70.7866C6.69849 106.581 36.2307 135.642 72.7155 135.642C109.2 135.642 138.733 106.581 138.733 70.7866Z" fill="url(#paint1_linear)" style="mix-blend-mode:lighten"/>
<path d="M138.733 70.7866C138.733 34.9927 109.2 5.93169 72.7155 5.93169C36.2307 5.93169 6.69849 34.9927 6.69849 70.7866C6.69849 106.581 36.2307 135.642 72.7155 135.642C109.2 135.642 138.733 106.581 138.733 70.7866Z" stroke="white" stroke-width="3"/>
<path opacity="0.6" d="M61.9917 76.6182V63.9355H58.9155L55.312 72.9268H55.2417L51.6382 63.9355H48.562V76.6182H50.9263V68.0576H50.9966L54.4419 76.4951H56.1118L59.5571 68.0576H59.6274V76.6182H61.9917ZM72.9325 67.1963H70.3661V72.5928C70.3661 73.8408 69.6542 74.6582 68.5116 74.6582C67.3778 74.6582 66.7538 73.9902 66.7538 72.7334V67.1963H64.1874V73.2695C64.1874 75.4668 65.5409 76.7939 67.58 76.7939C69.0038 76.7939 69.9354 76.1084 70.4013 74.9219H70.454V76.6182H72.9325V67.1963ZM74.7942 69.9648C74.7942 71.3535 75.7083 72.2852 77.4925 72.6895L79.2327 73.0762C80.0765 73.2783 80.3929 73.542 80.3929 74.0166C80.3929 74.6318 79.804 75.0186 78.8284 75.0186C77.8089 75.0186 77.1849 74.5615 77.0618 73.7705H74.5569C74.6975 75.6074 76.2444 76.8203 78.7581 76.8203C81.2454 76.8203 82.9505 75.5986 82.9505 73.7441C82.9505 72.3379 82.1858 71.5908 80.2962 71.1689L78.4944 70.7822C77.6682 70.5889 77.264 70.2725 77.264 69.8066C77.264 69.2002 77.844 68.7959 78.7317 68.7959C79.6809 68.7959 80.2874 69.2617 80.3401 70.0176H82.7044C82.6692 68.1895 81.1311 66.9941 78.7669 66.9941C76.3499 66.9941 74.7942 68.1719 74.7942 69.9648ZM84.6276 76.6182H87.194V67.1963H84.6276V76.6182ZM85.9108 66.1592C86.6843 66.1592 87.2819 65.5703 87.2819 64.832C87.2819 64.085 86.6843 63.5049 85.9108 63.5049C85.1374 63.5049 84.5397 64.085 84.5397 64.832C84.5397 65.5703 85.1374 66.1592 85.9108 66.1592ZM97.8184 70.7031C97.7042 68.5674 96.087 66.9941 93.5382 66.9941C90.7169 66.9941 88.9151 68.875 88.9151 71.8984C88.9151 74.9746 90.7169 76.8203 93.5557 76.8203C96.0343 76.8203 97.6954 75.3877 97.8272 73.1641H95.4366C95.2784 74.1924 94.6104 74.8076 93.5821 74.8076C92.3077 74.8076 91.5167 73.7529 91.5167 71.8984C91.5167 70.0791 92.3077 69.0068 93.5733 69.0068C94.628 69.0068 95.2872 69.71 95.4366 70.7031H97.8184Z" fill="#464646"/>
<defs>
<linearGradient id="paint0_linear" x1="72.65" y1="0.134766" x2="72.65" y2="141.484" gradientUnits="userSpaceOnUse">
<stop stop-color="#B0B0B0" stop-opacity="0.49"/>
<stop offset="1" stop-color="white" stop-opacity="0"/>
</linearGradient>
<linearGradient id="paint1_linear" x1="72.7155" y1="137.142" x2="72.7155" y2="4.43169" gradientUnits="userSpaceOnUse">
<stop stop-color="white"/>
<stop offset="1" stop-color="#C2C2C4"/>
</linearGradient>
</defs>
</svg>
