<svg width="121" height="119" viewBox="0 0 121 119" fill="none" xmlns="http://www.w3.org/2000/svg">
<ellipse cx="60.947" cy="59.1717" rx="60.052" ry="59.0184" fill="#C0C0C0"/>
<ellipse cx="60.947" cy="59.1717" rx="60.052" ry="59.0184" fill="url(#paint0_linear)" style="mix-blend-mode:lighten"/>
<path d="M115.604 59.1533C115.604 29.4035 91.0576 5.24216 60.7226 5.24216C30.3877 5.24216 5.84106 29.4035 5.84106 59.1533C5.84106 88.9032 30.3877 113.064 60.7226 113.064C91.0576 113.064 115.604 88.9032 115.604 59.1533Z" fill="#B0B0B0"/>
<path d="M115.604 59.1533C115.604 29.4035 91.0576 5.24216 60.7226 5.24216C30.3877 5.24216 5.84106 29.4035 5.84106 59.1533C5.84106 88.9032 30.3877 113.064 60.7226 113.064C91.0576 113.064 115.604 88.9032 115.604 59.1533Z" fill="url(#paint1_linear)" style="mix-blend-mode:lighten"/>
<path d="M115.604 59.1533C115.604 29.4035 91.0576 5.24216 60.7226 5.24216C30.3877 5.24216 5.84106 29.4035 5.84106 59.1533C5.84106 88.9032 30.3877 113.064 60.7226 113.064C91.0576 113.064 115.604 88.9032 115.604 59.1533Z" stroke="white" stroke-width="3"/>
<path opacity="0.6" d="M46.0026 51.4336C48.7096 51.4336 50.3883 50.0361 50.3883 47.8037C50.3883 46.125 49.1227 44.8682 47.4001 44.7363V44.666C48.7448 44.4639 49.7819 43.3037 49.7819 41.915C49.7819 39.9727 48.2878 38.751 45.9059 38.751H40.3864V51.4336H46.0026ZM43.0407 40.7285H45.2204C46.4596 40.7285 47.1715 41.3086 47.1715 42.3281C47.1715 43.4004 46.363 44.0244 44.9479 44.0244H43.0407V40.7285ZM43.0407 49.4561V45.7734H45.2643C46.8288 45.7734 47.6813 46.4062 47.6813 47.5928C47.6813 48.8057 46.8551 49.4561 45.3258 49.4561H43.0407ZM56.3546 51.6357C59.2022 51.6357 61.0215 49.8164 61.0215 46.7139C61.0215 43.6553 59.1758 41.8096 56.3546 41.8096C53.5333 41.8096 51.6876 43.6641 51.6876 46.7139C51.6876 49.8076 53.5069 51.6357 56.3546 51.6357ZM56.3546 49.6758C55.0889 49.6758 54.2891 48.6123 54.2891 46.7227C54.2891 44.8506 55.1065 43.7695 56.3546 43.7695C57.6026 43.7695 58.4112 44.8506 58.4112 46.7227C58.4112 48.6123 57.6114 49.6758 56.3546 49.6758ZM67.0229 51.6357C69.8706 51.6357 71.6899 49.8164 71.6899 46.7139C71.6899 43.6553 69.8442 41.8096 67.0229 41.8096C64.2016 41.8096 62.3559 43.6641 62.3559 46.7139C62.3559 49.8076 64.1753 51.6357 67.0229 51.6357ZM67.0229 49.6758C65.7573 49.6758 64.9575 48.6123 64.9575 46.7227C64.9575 44.8506 65.7749 43.7695 67.0229 43.7695C68.271 43.7695 69.0796 44.8506 69.0796 46.7227C69.0796 48.6123 68.2798 49.6758 67.0229 49.6758ZM76.0301 45.791H75.995V38.751H73.4286V51.4336H75.995V48.3223L76.663 47.6016L79.3612 51.4336H82.3143L78.5438 46.0547L82.1385 42.0117H79.2294L76.0301 45.791ZM47.7516 79.6533C50.863 79.6533 53.0339 77.8604 53.3327 75.0303H50.7487C50.4674 76.5332 49.3337 77.4561 47.7604 77.4561C45.7301 77.4561 44.4557 75.7861 44.4557 73.0791C44.4557 70.4072 45.7477 68.7285 47.7516 68.7285C49.2985 68.7285 50.4938 69.748 50.7399 71.3037H53.3239C53.1217 68.4648 50.8014 66.5312 47.7516 66.5312C44.0778 66.5312 41.7487 69.001 41.7487 73.0879C41.7487 77.1836 44.0602 79.6533 47.7516 79.6533ZM55.168 79.4336H57.7344V66.751H55.168V79.4336ZM68.5171 70.0117H65.9506V75.4082C65.9506 76.6562 65.2387 77.4736 64.0962 77.4736C62.9624 77.4736 62.3383 76.8057 62.3383 75.5488V70.0117H59.7719V76.085C59.7719 78.2822 61.1255 79.6094 63.1645 79.6094C64.5883 79.6094 65.52 78.9238 65.9858 77.7373H66.0385V79.4336H68.5171V70.0117ZM76.1356 79.583C78.5087 79.583 79.9589 77.7549 79.9589 74.7227C79.9589 71.6816 78.4999 69.8623 76.1268 69.8623C74.7821 69.8623 73.7362 70.5303 73.2176 71.6465H73.1649V66.751H70.5985V79.4336H73.1297V77.8164H73.1825C73.701 78.915 74.7557 79.583 76.1356 79.583ZM75.2479 71.9189C76.5223 71.9189 77.3309 73.0088 77.3309 74.7227C77.3309 76.4453 76.5311 77.5176 75.2479 77.5176C73.9999 77.5176 73.1561 76.4277 73.1561 74.7227C73.1561 73.0352 74.0087 71.9189 75.2479 71.9189Z" fill="#464646"/>
<defs>
<linearGradient id="paint0_linear" x1="60.947" y1="0.15332" x2="60.947" y2="118.19" gradientUnits="userSpaceOnUse">
<stop stop-color="#B0B0B0" stop-opacity="0.49"/>
<stop offset="1" stop-color="white" stop-opacity="0"/>
</linearGradient>
<linearGradient id="paint1_linear" x1="60.7226" y1="114.564" x2="60.7226" y2="3.74216" gradientUnits="userSpaceOnUse">
<stop stop-color="white"/>
<stop offset="1" stop-color="#C2C2C4"/>
</linearGradient>
</defs>
</svg>
