<svg width="98" height="97" viewBox="0 0 98 97" fill="none" xmlns="http://www.w3.org/2000/svg">
<ellipse cx="49.0506" cy="48.7944" rx="48.8013" ry="47.9614" fill="#C0C0C0"/>
<ellipse cx="49.0506" cy="48.7944" rx="48.8013" ry="47.9614" fill="url(#paint0_linear)" style="mix-blend-mode:lighten"/>
<path d="M93.1869 48.7806C93.1869 24.7642 73.3695 5.25071 48.8684 5.25071C24.3672 5.25071 4.5498 24.7642 4.5498 48.7806C4.5498 72.7971 24.3672 92.3105 48.8684 92.3105C73.3695 92.3105 93.1869 72.7971 93.1869 48.7806Z" fill="#B0B0B0"/>
<path d="M93.1869 48.7806C93.1869 24.7642 73.3695 5.25071 48.8684 5.25071C24.3672 5.25071 4.5498 24.7642 4.5498 48.7806C4.5498 72.7971 24.3672 92.3105 48.8684 92.3105C73.3695 92.3105 93.1869 72.7971 93.1869 48.7806Z" fill="url(#paint1_linear)" style="mix-blend-mode:lighten"/>
<path d="M93.1869 48.7806C93.1869 24.7642 73.3695 5.25071 48.8684 5.25071C24.3672 5.25071 4.5498 24.7642 4.5498 48.7806C4.5498 72.7971 24.3672 92.3105 48.8684 92.3105C73.3695 92.3105 93.1869 72.7971 93.1869 48.7806Z" stroke="white" stroke-width="3"/>
<path opacity="0.6" d="M21.5497 54.7305V49.7383H26.7089V47.6377H21.5497V44.2363H27.2011V42.0479H18.8954V54.7305H21.5497ZM28.9486 54.7305H31.515V45.3086H28.9486V54.7305ZM30.2318 44.2715C31.0052 44.2715 31.6029 43.6826 31.6029 42.9443C31.6029 42.1973 31.0052 41.6172 30.2318 41.6172C29.4583 41.6172 28.8607 42.1973 28.8607 42.9443C28.8607 43.6826 29.4583 44.2715 30.2318 44.2715ZM34.2644 43.1377V45.3086H32.9372V47.2422H34.2644V52.1904C34.2644 54.0273 35.1257 54.7656 37.3406 54.7656C37.8591 54.7656 38.2986 54.7217 38.5622 54.6602V52.7705C38.404 52.7969 38.1667 52.8145 37.9382 52.8145C37.1824 52.8145 36.8308 52.4717 36.8308 51.751V47.2422H38.571V45.3086H36.8308V43.1377H34.2644ZM40.3273 54.7305H42.8937V49.3252C42.8937 48.1035 43.6232 47.2598 44.7745 47.2598C45.9259 47.2598 46.506 47.9629 46.506 49.1934V54.7305H49.0724V48.6572C49.0724 46.4512 47.8947 45.1328 45.8029 45.1328C44.3527 45.1328 43.3595 45.8184 42.8585 46.9873H42.8058V45.3086H40.3273V54.7305ZM55.2759 47.0049C56.4185 47.0049 57.2007 47.8311 57.2534 49.0352H53.2544C53.3423 47.8574 54.1509 47.0049 55.2759 47.0049ZM57.2886 51.8477C57.0513 52.5684 56.3306 53.0342 55.3902 53.0342C54.0806 53.0342 53.2281 52.1113 53.2281 50.7666V50.6084H59.7232V49.8262C59.7232 46.9609 57.9917 45.1064 55.2495 45.1064C52.4634 45.1064 50.7056 47.0576 50.7056 50.0635C50.7056 53.0781 52.4458 54.9326 55.3462 54.9326C57.6753 54.9326 59.3628 53.6934 59.6441 51.8477H57.2886ZM61.2421 48.0771C61.2421 49.4658 62.1562 50.3975 63.9404 50.8018L65.6806 51.1885C66.5243 51.3906 66.8407 51.6543 66.8407 52.1289C66.8407 52.7441 66.2519 53.1309 65.2763 53.1309C64.2568 53.1309 63.6327 52.6738 63.5097 51.8828H61.0048C61.1454 53.7197 62.6923 54.9326 65.206 54.9326C67.6933 54.9326 69.3984 53.7109 69.3984 51.8564C69.3984 50.4502 68.6337 49.7031 66.7441 49.2812L64.9423 48.8945C64.1161 48.7012 63.7118 48.3848 63.7118 47.9189C63.7118 47.3125 64.2919 46.9082 65.1796 46.9082C66.1288 46.9082 66.7353 47.374 66.788 48.1299H69.1523C69.1171 46.3018 67.579 45.1064 65.2148 45.1064C62.7978 45.1064 61.2421 46.2842 61.2421 48.0771ZM70.8734 48.0771C70.8734 49.4658 71.7874 50.3975 73.5716 50.8018L75.3118 51.1885C76.1556 51.3906 76.472 51.6543 76.472 52.1289C76.472 52.7441 75.8831 53.1309 74.9075 53.1309C73.888 53.1309 73.264 52.6738 73.1409 51.8828H70.6361C70.7767 53.7197 72.3236 54.9326 74.8372 54.9326C77.3245 54.9326 79.0296 53.7109 79.0296 51.8564C79.0296 50.4502 78.265 49.7031 76.3753 49.2812L74.5736 48.8945C73.7474 48.7012 73.3431 48.3848 73.3431 47.9189C73.3431 47.3125 73.9232 46.9082 74.8109 46.9082C75.7601 46.9082 76.3665 47.374 76.4193 48.1299H78.7835C78.7484 46.3018 77.2103 45.1064 74.846 45.1064C72.429 45.1064 70.8734 46.2842 70.8734 48.0771Z" fill="#464646"/>
<defs>
<linearGradient id="paint0_linear" x1="49.0506" y1="0.833008" x2="49.0506" y2="96.7557" gradientUnits="userSpaceOnUse">
<stop stop-color="#B0B0B0" stop-opacity="0.49"/>
<stop offset="1" stop-color="white" stop-opacity="0"/>
</linearGradient>
<linearGradient id="paint1_linear" x1="48.8684" y1="93.8105" x2="48.8684" y2="3.75071" gradientUnits="userSpaceOnUse">
<stop stop-color="white"/>
<stop offset="1" stop-color="#C2C2C4"/>
</linearGradient>
</defs>
</svg>
