<svg width="12" height="22" viewBox="0 0 12 22" fill="none" xmlns="http://www.w3.org/2000/svg">
<path d="M11.5385 0H8.65385C5.42308 0 3.32308 2.12461 3.32308 5.41433V7.90446H0.461538C0.207692 7.90446 0 8.11007 0 8.36137V11.9709C0 12.2222 0.207692 12.4278 0.461538 12.4278H3.34615V21.5431C3.34615 21.7944 3.55385 22 3.80769 22H7.59231C7.84615 22 8.05385 21.7944 8.05385 21.5431V12.405H11.4462C11.7 12.405 11.9077 12.1994 11.9077 11.9481V8.33852C11.9077 8.2243 11.8615 8.11007 11.7692 8.01869C11.6769 7.92731 11.5615 7.88162 11.4462 7.88162H8.03077V5.77985C8.03077 4.77466 8.28462 4.24922 9.6 4.24922H11.5385C11.7923 4.24922 12 4.04361 12 3.79232V0.456905C12 0.205607 11.7923 0 11.5385 0Z" fill="white"/>
</svg>
