<svg width="20" height="19" viewBox="0 0 20 19" fill="none" xmlns="http://www.w3.org/2000/svg">
<path fill-rule="evenodd" clip-rule="evenodd" d="M4.60297 2.12343C4.60297 3.30382 3.71445 4.24833 2.2878 4.24833H2.26165C0.888024 4.24833 0 3.30382 0 2.12343C0 0.918074 0.91507 0 2.31476 0C3.71445 0 4.57641 0.918074 4.60297 2.12343ZM4.33365 5.92634V18.2197H0.242109V5.92634H4.33365ZM19.089 18.2197L19.0891 11.171C19.0891 7.39503 17.0706 5.63762 14.3782 5.63762C12.2059 5.63762 11.2333 6.83082 10.6902 7.66788V5.92662H6.59821C6.65214 7.08017 6.59821 18.22 6.59821 18.22H10.6902V11.3544C10.6902 10.987 10.7168 10.6204 10.825 10.3574C11.1207 9.62339 11.794 8.86345 12.9244 8.86345C14.4055 8.86345 14.9976 9.99072 14.9976 11.6427V18.2197H19.089Z" fill="white"/>
</svg>
