<svg width="18" height="19" viewBox="0 0 18 19" fill="none" xmlns="http://www.w3.org/2000/svg">
<path d="M3.31579 12.35C4.1779 12.35 4.95758 12.0099 5.54874 11.4665L11.4793 14.8646C11.409 15.1291 11.3718 15.4013 11.3684 15.675C11.3684 17.5085 12.8558 19 14.6842 19C16.5126 19 18 17.5085 18 15.675C18 13.8415 16.5126 12.35 14.6842 12.35C13.8221 12.35 13.0424 12.6901 12.4513 13.2335L6.52074 9.83535C6.58042 9.6007 6.61832 9.35845 6.62305 9.10575L12.4503 5.7665C13.0424 6.3099 13.8221 6.65 14.6842 6.65C16.5126 6.65 18 5.1585 18 3.325C18 1.4915 16.5126 0 14.6842 0C12.8558 0 11.3684 1.4915 11.3684 3.325C11.3684 3.6062 11.4139 3.8741 11.4793 4.13535L6.09442 7.2219C5.79481 6.75576 5.38356 6.37228 4.8982 6.10644C4.41284 5.8406 3.86883 5.70087 3.31579 5.7C1.48737 5.7 0 7.1915 0 9.025C0 10.8585 1.48737 12.35 3.31579 12.35ZM14.6842 14.25C15.4677 14.25 16.1053 14.8893 16.1053 15.675C16.1053 16.4606 15.4677 17.1 14.6842 17.1C13.9007 17.1 13.2632 16.4606 13.2632 15.675C13.2632 14.8893 13.9007 14.25 14.6842 14.25ZM14.6842 1.9C15.4677 1.9 16.1053 2.53935 16.1053 3.325C16.1053 4.11065 15.4677 4.75 14.6842 4.75C13.9007 4.75 13.2632 4.11065 13.2632 3.325C13.2632 2.53935 13.9007 1.9 14.6842 1.9ZM3.31579 7.6C4.09926 7.6 4.73684 8.23935 4.73684 9.025C4.73684 9.81065 4.09926 10.45 3.31579 10.45C2.53232 10.45 1.89474 9.81065 1.89474 9.025C1.89474 8.23935 2.53232 7.6 3.31579 7.6Z" fill="#00BA88"/>
</svg>
