<svg width="21" height="17" viewBox="0 0 21 17" fill="none" xmlns="http://www.w3.org/2000/svg">
<path d="M10.1967 4.52227L10.2422 5.25756L9.48354 5.16753C6.72193 4.82239 4.30932 3.65191 2.26087 1.68612L1.25941 0.710722L1.00146 1.43101C0.45521 3.03666 0.804204 4.73235 1.94223 5.87281C2.54917 6.50307 2.41261 6.59311 1.36563 6.21795C1.00146 6.0979 0.682815 6.00787 0.652467 6.05289C0.546252 6.15793 0.910419 7.52348 1.19872 8.0637C1.59323 8.814 2.39744 9.5493 3.27751 9.98448L4.02102 10.3296L3.14095 10.3446C2.29122 10.3446 2.26087 10.3596 2.35192 10.6748C2.65539 11.6502 3.85411 12.6856 5.18939 13.1358L6.13016 13.4509L5.31078 13.9311C4.09689 14.6214 2.67056 15.0115 1.24424 15.0415C0.561425 15.0565 0 15.1166 0 15.1616C0 15.3116 1.85119 16.152 2.92852 16.4821C6.16051 17.4575 9.99944 17.0373 12.8824 15.3717C14.9309 14.1862 16.9793 11.8302 17.9353 9.5493C18.4512 8.33381 18.9671 6.11291 18.9671 5.04748C18.9671 4.3572 19.0126 4.26716 19.8623 3.44183C20.363 2.96163 20.8334 2.43642 20.9245 2.28636C21.0762 2.00124 21.061 2.00124 20.2872 2.25635C18.9974 2.70653 18.8153 2.64651 19.4526 1.97123C19.923 1.49104 20.4844 0.620685 20.4844 0.365582C20.4844 0.320564 20.2568 0.395594 19.9989 0.530649C19.7258 0.68071 19.1188 0.905801 18.6636 1.04086L17.8442 1.29596L17.1007 0.800758C16.691 0.530649 16.1144 0.230527 15.811 0.140491C15.0371 -0.0695944 13.8535 -0.0395823 13.1556 0.200515C11.2589 0.875789 10.0601 2.61649 10.1967 4.52227Z" fill="white"/>
</svg>
