<svg width="28" height="25" viewBox="0 0 28 25" fill="none" xmlns="http://www.w3.org/2000/svg">
<path d="M1.50439 16.0495H4.33114V23.1636C4.33114 23.3717 4.40161 23.5646 4.54307 23.706C4.68453 23.8475 4.8774 23.918 5.08553 23.918C5.29365 23.918 5.48652 23.8475 5.62798 23.706C5.76945 23.5646 5.83991 23.3717 5.83991 23.1636V16.0495H8.66667C8.87479 16.0495 9.06766 15.9791 9.20912 15.8376C9.35059 15.6962 9.42105 15.5033 9.42105 15.2952C9.42105 15.087 9.35059 14.8942 9.20912 14.7527C9.06766 14.6112 8.87479 14.5408 8.66667 14.5408H5.83991V1.17235C5.83991 0.964227 5.76945 0.771361 5.62798 0.629898C5.48652 0.488436 5.29365 0.417969 5.08553 0.417969C4.8774 0.417969 4.68453 0.488436 4.54307 0.629898C4.40161 0.77136 4.33114 0.964227 4.33114 1.17235V14.5408H1.50439C1.29626 14.5408 1.10339 14.6112 0.961929 14.7527C0.820467 14.8942 0.75 15.087 0.75 15.2952C0.75 15.5033 0.820467 15.6962 0.961929 15.8376C1.10339 15.9791 1.29626 16.0495 1.50439 16.0495Z" fill="black" stroke="black" stroke-width="0.5"/>
<path d="M10.4829 9.54297H13.3097V23.1636C13.3097 23.3717 13.3801 23.5646 13.5216 23.706C13.663 23.8475 13.8559 23.918 14.064 23.918C14.2722 23.918 14.465 23.8475 14.6065 23.706C14.748 23.5646 14.8184 23.3717 14.8184 23.1636V9.54297H17.6452C17.8533 9.54297 18.0462 9.4725 18.1876 9.33104C18.3291 9.18958 18.3996 8.99671 18.3996 8.78858C18.3996 8.58046 18.3291 8.38759 18.1876 8.24613C18.0462 8.10466 17.8533 8.0342 17.6452 8.0342H14.8184V1.17235C14.8184 0.964227 14.748 0.771361 14.6065 0.629898C14.465 0.488436 14.2722 0.417969 14.064 0.417969C13.8559 0.417969 13.663 0.488436 13.5216 0.629898C13.3801 0.771361 13.3097 0.964227 13.3097 1.17235V8.0342H10.4829C10.2748 8.0342 10.0819 8.10466 9.94045 8.24613C9.79898 8.38759 9.72852 8.58046 9.72852 8.78858C9.72852 8.99671 9.79898 9.18958 9.94045 9.33104C10.0819 9.4725 10.2748 9.54297 10.4829 9.54297Z" fill="black" stroke="black" stroke-width="0.5"/>
<path d="M19.46 16.3522H22.2867V23.1636C22.2867 23.3717 22.3572 23.5646 22.4986 23.706C22.6401 23.8475 22.833 23.918 23.0411 23.918C23.2492 23.918 23.4421 23.8475 23.5836 23.706C23.725 23.5646 23.7955 23.3717 23.7955 23.1636V16.3522H26.6222C26.8304 16.3522 27.0232 16.2817 27.1647 16.1403C27.3062 15.9988 27.3766 15.8059 27.3766 15.5978C27.3766 15.3897 27.3062 15.1968 27.1647 15.0553C27.0232 14.9139 26.8304 14.8434 26.6222 14.8434H23.7955V1.17235C23.7955 0.964227 23.725 0.771361 23.5836 0.629898C23.4421 0.488436 23.2492 0.417969 23.0411 0.417969C22.833 0.417969 22.6401 0.488436 22.4986 0.629898C22.3572 0.771361 22.2867 0.964227 22.2867 1.17235V14.8434H19.46C19.2518 14.8434 19.059 14.9139 18.9175 15.0553C18.776 15.1968 18.7056 15.3897 18.7056 15.5978C18.7056 15.8059 18.776 15.9988 18.9175 16.1403C19.059 16.2817 19.2518 16.3522 19.46 16.3522Z" fill="black" stroke="black" stroke-width="0.5"/>
</svg>
